<ttFont>
<head>
    <!-- Most of this table will be recalculated by the compiler -->
    <tableVersion value="1.0"/>
    <fontRevision value="1.207"/>
    <checkSumAdjustment value="0x5a4c4275"/>
    <magicNumber value="0x5f0f3cf5"/>
    <flags value="00000000 00000011"/>
    <unitsPerEm value="2000"/>
    <created value="Sun Sep 30 15:05:11 2018"/>
    <modified value="Fri Apr  5 20:56:38 2019"/>
    <xMin value="-3555"/>
    <yMin value="-1000"/>
    <xMax value="2384"/>
    <yMax value="2100"/>
    <macStyle value="00000000 00000000"/>
    <lowestRecPPEM value="6"/>
    <fontDirectionHint value="2"/>
    <indexToLocFormat value="0"/>
    <glyphDataFormat value="0"/>
  </head>
          <CharString index="0">
            rmoveto
            110 -351 182 0 -448 1377 305 callsubr
            return
          </CharString>
          <CharString index="1">
            1596 -75 callsubr
            return
          </CharString>
          <CharString index="2">
            167 callsubr
            62 callgsubr
          </CharString>
          <CharString index="3">
            -66 callsubr
            -480 return
          </CharString>
          <CharString index="4">
            rmoveto
            -3 callgsubr
            return
          </CharString>
          <CharString index="5">
            rmoveto
            588 hlineto
            20 142 rlineto
            -782 -1377 return
          </CharString>
          <CharString index="6">
            39 callsubr
            endchar
          </CharString>
          <CharString index="7">
            18 callsubr
            endchar
          </CharString>
          <CharString index="8">
            rmoveto
            -170 hlineto
            38 -202 13 -178 -148 vvcurveto
            -322 -158 -88 -141 -130 -77 72 150 vhcurveto
            716 -168 -731 vlineto
            -231 155 -114 214 239 237 159 374 205 -20 162 -32 176 vhcurveto
            endchar
          </CharString>
          <CharString index="9">
            rmoveto
            -632 vlineto
            -190 124 -112 189 96 107 28 26 47 vhcurveto
            -45 123 rlineto
            -23 -57 -63 -14 -56 hhcurveto
            -102 -72 39 104 hvcurveto
            793 -504 vlineto
            -20 -142 rlineto
            endchar
          </CharString>
          <CharString index="10">
            rmoveto
            -297 -158 -225 -325 return
          </CharString>
          <CharString index="11">
            150 rmoveto
            -100 -150 100 hlineto
            return
          </CharString>
          <CharString index="12">
            -200 -96 callsubr
            return
          </CharString>
          <CharString index="13">
            rmoveto
            84 callsubr
            return
          </CharString>
          <CharString index="14">
            125 callsubr
            endchar
          </CharString>
          <CharString index="15">
            rmoveto
            181 callsubr
            -32 callgsubr
            -182 hmoveto
            68 callsubr
          </CharString>
          <CharString index="16">
            -300 240 -240 300 return
          </CharString>
          <CharString index="17">
            600 1080 rmoveto
            -300 -240 -242 -298 return
          </CharString>
          <CharString index="18">
            -45 -339 144 0 return
          </CharString>
          <CharString index="19">
            -100 25 callsubr
            return
          </CharString>
          <CharString index="20">
            1385 -75 callsubr
            return
          </CharString>
          <CharString index="21">
            17 -34 27 -21 hvcurveto
            -59 -234 return
          </CharString>
          <CharString index="22">
            hmoveto
            -148 -98 148 vlineto
            return
          </CharString>
          <CharString index="23">
            -47 -45 -63 -61 47 -45 return
          </CharString>
          <CharString index="24">
            -102 -85 callsubr
            return
          </CharString>
          <CharString index="25">
            18 -34 26 -21 hvcurveto
            -59 -234 103 0 return
          </CharString>
          <CharString index="26">
            -73 callsubr
            endchar
          </CharString>
          <CharString index="27">
            rmoveto
            708 hlineto
            2 23 2 33 36 vvcurveto
            320 -162 196 -266 -280 -180 -231 -319 return
          </CharString>
          <CharString index="28">
            600 1254 60 callsubr
            return
          </CharString>
          <CharString index="29">
            -48 hhcurveto
            133 callgsubr
          </CharString>
          <CharString index="30">
            -74 callsubr
            endchar
          </CharString>
          <CharString index="31">
            176 callsubr
            endchar
          </CharString>
          <CharString index="32">
            rmoveto
            -61 -48 -46 -61 -35 return
          </CharString>
          <CharString index="33">
            rmoveto
            -154 hlineto
            73 -228 16 -157 -191 vvcurveto
            -212 -32 -150 -120 -119 -30 142 203 vhcurveto
            275 vlineto
            -161 -22 rlineto
            -252 vlineto
            -180 -29 -166 -119 -121 -31 150 212 190 10 159 72 227 vhcurveto
            -149 hlineto
            -52 -132 -47 -194 -250 vvcurveto
            -321 96 -179 204 130 84 85 148 31 vhcurveto
            -155 19 86 -78 138 hhcurveto
            202 104 190 310 250 -52 193 -49 133 hvcurveto
            return
          </CharString>
          <CharString index="34">
            rmoveto
            -261 -132 -232 -326 -363 143 -177 239 179 95 139 162 54 hvcurveto
            18 -113 18 -115 66 -59 100 -16 rlinecurve
            59 142 -53 20 -25 26 -11 56 rlinecurve
            -52 273 103 561 -154 0 -55 -308 rlineto
            250 -44 -109 80 -178 hhcurveto
            13 -135 rmoveto
            132 88 -83 -323 55 hvcurveto
            -355 -68 -117 -66 -98 hhcurveto
            -143 -74 126 278 274 81 149 144 hvcurveto
            return
          </CharString>
          <CharString index="35">
            rmoveto
            -124 -139 -60 -115 -90 hvcurveto
            -5 51 -23 90 -20 36 -157 -22 rcurveline
            25 -86 28 -119 -142 vvcurveto
            -708 168 767 vlineto
            83 56 107 93 119 hhcurveto
            164 19 -87 -215 hvcurveto
            -1065 vlineto
            168 21 rlineto
            1168 vlineto
            194 -91 116 -205 vhcurveto
            return
          </CharString>
          <CharString index="36">
            rmoveto
            505 vlineto
            208 -132 132 -262 -102 -114 -18 -48 -128 vhcurveto
            44 -127 rlineto
            38 109 95 16 70 hhcurveto
            157 94 -57 -152 hvcurveto
            -88 -155 vlineto
            -320 -174 -120 -217 -196 129 -129 211 136 119 50 98 75 hvcurveto
            return
          </CharString>
          <CharString index="37">
            -327 174 -221 308 131 133 47 77 98 vhcurveto
            -79 111 rlineto
            36 callgsubr
          </CharString>
          <CharString index="38">
            95 callsubr
            -1080 1080 hlineto
            return
          </CharString>
          <CharString index="39">
            -1220 -370 -160 return
          </CharString>
          <CharString index="40">
            393 67 callsubr
            return
          </CharString>
          <CharString index="41">
            840 2000 rmoveto
            return
          </CharString>
          <CharString index="42">
            160 -530 hlineto
            endchar
          </CharString>
          <CharString index="43">
            -72 callsubr
            endchar
          </CharString>
          <CharString index="44">
            74 53 111 52 hvcurveto
            -106 54 rlineto
            -60 -36 -31 -28 -39 -75 -47 96 -110 hhcurveto
            -98 return
          </CharString>
          <CharString index="45">
            213 -1317 58 callsubr
            -19 callsubr
            133 callgsubr
          </CharString>
          <CharString index="46">
            -286 -1452 -35 callsubr
            313 callsubr
            138 vhcurveto
            endchar
          </CharString>
          <CharString index="47">
            -305 -1430 -35 callsubr
            -78 callsubr
          </CharString>
          <CharString index="48">
            30 -94 72 -42 91 -12 41 118 rcurveline
            59 callgsubr
          </CharString>
          <CharString index="49">
            26 -21 hvcurveto
            -58 -234 11 callsubr
            endchar
          </CharString>
          <CharString index="50">
            rmoveto
            -154 -39 136 -397 113 31 rlineto
            return
          </CharString>
          <CharString index="51">
            -21 hvcurveto
            -59 -235 -30 callsubr
            return
          </CharString>
          <CharString index="52">
            17 callsubr
            298 -242 return
          </CharString>
          <CharString index="53">
            790 133 -297 hlineto
            endchar
          </CharString>
          <CharString index="54">
            1410 rmoveto
            -74 -404 return
          </CharString>
          <CharString index="55">
            767 79 callsubr
            return
          </CharString>
          <CharString index="56">
            393 66 callsubr
            return
          </CharString>
          <CharString index="57">
            rmoveto
            -175 -937 hlineto
            -209 -102 -104 -180 -179 -102 104 209 vhcurveto
            937 -172 -931 vlineto
            return
          </CharString>
          <CharString index="58">
            46 callsubr
            -1060 -530 return
          </CharString>
          <CharString index="59">
            rmoveto
            -95 -405 113 -31 136 397 rlineto
            return
          </CharString>
          <CharString index="60">
            1594 rmoveto
            -393 -224 return
          </CharString>
          <CharString index="61">
            46 callsubr
            -1220 return
          </CharString>
          <CharString index="62">
            -302 -85 callsubr
            return
          </CharString>
          <CharString index="63">
            -75 callsubr
            17 -34 return
          </CharString>
          <CharString index="64">
            1210 940 rmoveto
            return
          </CharString>
          <CharString index="65">
            rmoveto
            21 137 rlineto
            -190 hlineto
            -142 -88 62 96 112 95 52 161 106 112 -22 -56 91 hvcurveto
            85 105 rlineto
            76 -108 -160 31 -133 hhcurveto
            -233 -190 -94 -186 -114 74 -86 147 -31 hvcurveto
            -169 -24 -95 -75 -160 vvcurveto
            -212 196 -116 259 204 166 64 78 101 vhcurveto
            -91 112 rlineto
            -69 -98 -119 -46 -153 hhcurveto
            -177 -105 77 118 118 74 53 179 hvcurveto
            endchar
          </CharString>
          <CharString index="66">
            rmoveto
            -174 hlineto
            -298 -925 -302 925 -180 0 368 -1053 rlineto
            56 hlineto
            -56 -163 -62 -89 -218 -37 rrcurveto
            26 -134 279 28 117 174 74 214 rlinecurve
            endchar
          </CharString>
          <CharString index="67">
            -278 170 -191 283 279 178 190 279 vhcurveto
            endchar
          </CharString>
          <CharString index="68">
            14 -142 rlineto
            143 1053 -168 -775 hlineto
            314 callsubr
          </CharString>
          <CharString index="69">
            rmoveto
            -483 -133 315 -787 -325 -133 return
          </CharString>
          <CharString index="70">
            rmoveto
            -544 -609 544 -609 124 106 return
          </CharString>
          <CharString index="71">
            rmoveto
            1068 512 -60 107 -1070 -512 rlineto
            return
          </CharString>
          <CharString index="72">
            58 callsubr
            57 callsubr
            return
          </CharString>
          <CharString index="73">
            -150 rmoveto
            -148 -98 148 vlineto
            return
          </CharString>
          <CharString index="74">
            63 hvcurveto
            412 hmoveto
            63 47 45 61 return
          </CharString>
          <CharString index="75">
            1317 -24 callsubr
            return
          </CharString>
          <CharString index="76">
            208 170 172 210 return
          </CharString>
          <CharString index="77">
            103 0 99 214 rlineto
            22 47 return
          </CharString>
          <CharString index="78">
            200 -96 callsubr
            return
          </CharString>
          <CharString index="79">
            rmoveto
            111 callgsubr
            return
          </CharString>
          <CharString index="80">
            rmoveto
            -60 -48 -46 -61 -35 return
          </CharString>
          <CharString index="81">
            47 -15 callsubr
            -294 0 48 -15 callsubr
            rlineto
            -179 -131 162 hlineto
            -61 -443 rlineto
            -175 -130 158 hlineto
            -89 callsubr
            44 339 291 0 return
          </CharString>
          <CharString index="82">
            1517 rmoveto
            156 130 94 145 15 hvcurveto
            -115 25 rlineto
            -79 -29 -62 -54 -95 hhcurveto
            -94 -57 54 79 -27 hvcurveto
            -117 -25 rlineto
            -145 17 125 -94 153 hhcurveto
            return
          </CharString>
          <CharString index="83">
            rmoveto
            86 -63 callsubr
            -20 callsubr
            29 33 45 73 54 -97 106 hhcurveto
            return
          </CharString>
          <CharString index="84">
            rmoveto
            87 73 53 111 52 hvcurveto
            -105 54 rlineto
            -60 -37 225 callsubr
            return
          </CharString>
          <CharString index="85">
            -443 rmoveto
            -291 hlineto
            59 443 rlineto
            293 hlineto
            return
          </CharString>
          <CharString index="86">
            63 -47 45 -63 -60 -48 -45 -63 -61 48 -45 60 hvcurveto
            return
          </CharString>
          <CharString index="87">
            -70 -74 -94 -46 hvcurveto
            107 -54 rlineto
            60 32 return
          </CharString>
          <CharString index="88">
            -66 88 rlineto
            -22 -37 -28 -12 -48 hhcurveto
            return
          </CharString>
          <CharString index="89">
            1812 rmoveto
            -396 -211 return
          </CharString>
          <CharString index="90">
            1611 -27 callsubr
            return
          </CharString>
          <CharString index="91">
            -210 -170 170 210 return
          </CharString>
          <CharString index="92">
            334 -144 0 -44 -334 return
          </CharString>
          <CharString index="93">
            325 -11 -57 callsubr
            return
          </CharString>
          <CharString index="94">
            242 -298 hvcurveto
            -160 vmoveto
            return
          </CharString>
          <CharString index="95">
            208 172 -172 -208 return
          </CharString>
          <CharString index="96">
            131 -21 143 392 rlineto
            return
          </CharString>
          <CharString index="97">
            29 35 vvcurveto
            61 -48 46 -60 vhcurveto
            return
          </CharString>
          <CharString index="98">
            -89 callsubr
            42 339 return
          </CharString>
          <CharString index="99">
            -206 187 callsubr
            return
          </CharString>
          <CharString index="100">
            773 78 callsubr
            return
          </CharString>
          <CharString index="101">
            498 -85 callsubr
            return
          </CharString>
          <CharString index="102">
            298 -85 callsubr
            return
          </CharString>
          <CharString index="103">
            264 -188 89 -214 62 vhcurveto
            -262 77 -85 58 120 vvcurveto
            137 125 66 150 117 117 -38 -87 98 vhcurveto
            102 113 rlineto
            101 -115 -135 56 -190 hhcurveto
            -263 -183 -148 -206 -219 172 -99 272 -80 hvcurveto
            237 -70 65 -66 -133 vvcurveto
            -173 -153 -82 -167 -168 -120 56 90 -95 vhcurveto
            -103 -116 rlineto
            return
          </CharString>
          <CharString index="104">
            -462 260 -250 336 196 132 68 82 84 hvcurveto
            -90 114 rlineto
            211 callsubr
            endchar
          </CharString>
          <CharString index="105">
            17 361 callsubr
            -60 vhcurveto
            return
          </CharString>
          <CharString index="106">
            -330 179 -215 315 124 140 49 78 92 hvcurveto
            -82 110 rlineto
            -54 -78 -90 -38 -106 hhcurveto
            endchar
          </CharString>
          <CharString index="107">
            -56 -29 28 56 hvcurveto
            92 -150 -95 vlineto
            -123 82 -82 137 vhcurveto
            endchar
          </CharString>
          <CharString index="108">
            -89 70 -74 91 93 70 74 89 90 -70 71 -93 -91 -70 -71 -90 vhcurveto
            return
          </CharString>
          <CharString index="109">
            -99 76 -78 99 101 76 78 99 97 -76 78 -101 -99 -76 -78 -97 vhcurveto
            return
          </CharString>
          <CharString index="110">
            -181 76 83 -269 238 -113 0 -271 -238 rlineto
            return
          </CharString>
          <CharString index="111">
            1107 687 rmoveto
            181 callsubr
            -32 callgsubr
            return
          </CharString>
          <CharString index="112">
            1399 rmoveto
            -161 -143 -61 -137 -116 hvcurveto
            return
          </CharString>
          <CharString index="113">
            100 214 rlineto
            21 47 9 28 35 vvcurveto
            61 -48 46 return
          </CharString>
          <CharString index="114">
            rmoveto
            1068 512 -61 107 -1070 -512 rlineto
            return
          </CharString>
          <CharString index="115">
            74 53 112 52 hvcurveto
            -106 53 rlineto
            -60 return
          </CharString>
          <CharString index="116">
            -480 370 -1460 480 return
          </CharString>
          <CharString index="117">
            -300 rmoveto
            -150 -100 150 vlineto
            return
          </CharString>
          <CharString index="118">
            102 0 6 callsubr
            -60 vhcurveto
            return
          </CharString>
          <CharString index="119">
            8 28 35 vvcurveto
            61 -48 46 -60 vhcurveto
            return
          </CharString>
          <CharString index="120">
            rmoveto
            60 48 45 61 63 -48 45 -60 return
          </CharString>
          <CharString index="121">
            -1620 160 1620 return
          </CharString>
          <CharString index="122">
            92 callsubr
            -36 17 -33 return
          </CharString>
          <CharString index="123">
            -210 -172 -170 -208 return
          </CharString>
          <CharString index="124">
            298 242 240 300 return
          </CharString>
          <CharString index="125">
            45 144 85 callsubr
            return
          </CharString>
          <CharString index="126">
            28 33 46 73 54 -97 105 hhcurveto
            return
          </CharString>
          <CharString index="127">
            151 callsubr
            235 rlineto
            return
          </CharString>
          <CharString index="128">
            300 25 callsubr
            return
          </CharString>
          <CharString index="129">
            45 -90 427 157 rlineto
            return
          </CharString>
          <CharString index="130">
            36 vvcurveto
            61 -48 46 -61 vhcurveto
            return
          </CharString>
          <CharString index="131">
            20 17 -104 callgsubr
            return
          </CharString>
          <CharString index="132">
            hmoveto
            -150 -100 150 vlineto
            return
          </CharString>
          <CharString index="133">
            rmoveto
            86 8 callsubr
            -36 -31 -28 -39 -75 -47 97 -110 hhcurveto
            -98 -70 -75 -94 -46 hvcurveto
            107 -54 rlineto
            61 32 29 32 45 73 54 -97 106 hhcurveto
            return
          </CharString>
          <CharString index="134">
            13 -405 -380 135 -51 -158 387 -114 -247 -320 134 -98 20 callgsubr
            117 callgsubr
            endchar
          </CharString>
          <CharString index="135">
            -187 -108 -148 -173 -170 108 -153 187 187 106 153 170 172 -106 149 -187 hvcurveto
            return
          </CharString>
          <CharString index="136">
            -187 -108 -147 -173 -170 108 -153 187 187 106 153 170 172 -106 148 -187 hvcurveto
            return
          </CharString>
          <CharString index="137">
            vvcurveto
            -111 92 -86 152 52 34 6 8 40 vhcurveto
            18 134 rlineto
            -10 -50 -32 -4 -42 hhcurveto
            return
          </CharString>
          <CharString index="138">
            9 -29 21 -46 hvcurveto
            100 -215 54 callsubr
            21 17 33 23 callsubr
            return
          </CharString>
          <CharString index="139">
            226 hlineto
            498 1213 rlineto
            -15 -126 -15 -180 -210 vvcurveto
            -697 return
          </CharString>
          <CharString index="140">
            1598 366 callsubr
            21 18 33 132 callsubr
            return
          </CharString>
          <CharString index="141">
            234 rlineto
            27 21 17 -104 callgsubr
            -59 callgsubr
            return
          </CharString>
          <CharString index="142">
            hvcurveto
            -58 -235 102 0 100 214 rlineto
            21 47 9 return
          </CharString>
          <CharString index="143">
            764 -18 callsubr
            22 callsubr
            return
          </CharString>
          <CharString index="144">
            177 131 -160 hlineto
            -26 callsubr
            return
          </CharString>
          <CharString index="145">
            2000 rmoveto
            -160 -3000 160 return
          </CharString>
          <CharString index="146">
            788 139 -306 1099 306 hlineto
            return
          </CharString>
          <CharString index="147">
            42 339 rlineto
            181 130 -162 hlineto
            return
          </CharString>
          <CharString index="148">
            23 vhcurveto
            128 -22 86 -21 -58 vvcurveto
            endchar
          </CharString>
          <CharString index="149">
            9 -28 21 -47 hvcurveto
            100 -215 102 0 return
          </CharString>
          <CharString index="150">
            -148 rmoveto
            -150 -98 148 vlineto
            return
          </CharString>
          <CharString index="151">
            602 1075 -97 callsubr
            return
          </CharString>
          <CharString index="152">
            20 44 vvcurveto
            304 -293 rmoveto
            -46 return
          </CharString>
          <CharString index="153">
            680 2000 rmoveto
            -160 return
          </CharString>
          <CharString index="154">
            -29 22 -46 315 callsubr
            return
          </CharString>
          <CharString index="155">
            -59 235 rlineto
            27 21 17 33 return
          </CharString>
          <CharString index="156">
            -84 -872 244 callsubr
          </CharString>
          <CharString index="157">
            1410 rmoveto
            -199 -33 return
          </CharString>
          <CharString index="158">
            -300 25 callsubr
            return
          </CharString>
          <CharString index="159">
            868 -107 callgsubr
            return
          </CharString>
          <CharString index="160">
            658 -38 callgsubr
            return
          </CharString>
          <CharString index="161">
            102 0 -58 235 rlineto
            26 return
          </CharString>
          <CharString index="162">
            52 -90 418 170 rlineto
            return
          </CharString>
          <CharString index="163">
            -61 vhcurveto
            -56 callgsubr
            return
          </CharString>
          <CharString index="164">
            -67 88 rlineto
            -22 -36 -28 -12 return
          </CharString>
          <CharString index="165">
            rmoveto
            93 61 39 31 41 hvcurveto
            return
          </CharString>
          <CharString index="166">
            rmoveto
            87 73 53 112 52 hvcurveto
            -105 53 rlineto
            -60 -37 -30 -28 -40 -75 -46 97 -111 -45 callgsubr
            return
          </CharString>
          <CharString index="167">
            rmoveto
            211 114 239 callsubr
            167 91 96 172 295 vvcurveto
            449 -198 252 -309 -309 -198 -252 -449 -295 92 -176 169 -87 vhcurveto
            -239 -140 418 129 hlineto
            -166 82 -92 169 318 vvcurveto
            400 112 156 213 vhcurveto
            return
          </CharString>
          <CharString index="168">
            rmoveto
            -161 hlineto
            -165 -1186 -157 1026 -213 0 -165 -1026 -147 1186 -174 0 194 -1377 233 0 159 1039 158 -1039 rlineto
            228 hlineto
            endchar
          </CharString>
          <CharString index="169">
            184 1053 -164 0 -134 -949 -159 815 -199 0 -168 -815 -134 949 -172 0 192 -1053 232 0 148 773 136 -773 rlineto
            endchar
          </CharString>
          <CharString index="170">
            rmoveto
            -181 -131 119 281 278 130 135 182 92 90 -32 -62 90 hvcurveto
            82 112 rlineto
            81 -100 -117 41 -135 hhcurveto
            -316 -180 -237 -316 return
          </CharString>
          <CharString index="171">
            1260 rmoveto
            185 101 149 122 16 hvcurveto
            -116 26 rlineto
            -100 -28 -61 -68 -97 hhcurveto
            -94 -56 68 100 -28 hvcurveto
            -116 -26 rlineto
            -122 16 97 -149 181 hhcurveto
            return
          </CharString>
          <CharString index="172">
            rmoveto
            -124 -110 45 69 -82 hvcurveto
            -96 -111 rlineto
            -78 90 132 -64 190 hhcurveto
            225 219 89 225 197 -136 72 -206 56 hvcurveto
            283 callsubr
          </CharString>
          <CharString index="173">
            1297 rmoveto
            60 48 45 61 62 -48 46 -60 -64 -46 -46 -62 -61 46 -45 64 hvcurveto
            412 hmoveto
            63 47 45 61 62 -47 46 -63 -61 -47 -46 -62 -61 47 -45 61 hvcurveto
            return
          </CharString>
          <CharString index="174">
            -106 callgsubr
            -64 -46 -45 -63 -61 46 -45 64 hvcurveto
            412 hmoveto
            63 47 45 61 63 -47 45 -63 -61 -84 callsubr
            61 hvcurveto
            return
          </CharString>
          <CharString index="175">
            -367 -93 -197 -232 -226 -99 195 367 367 93 202 232 232 93 -200 -367 vhcurveto
            endchar
          </CharString>
          <CharString index="176">
            rmoveto
            723 1085 rlineto
            142 -842 -148 656 vlineto
            -728 -1088 rlineto
            -141 891 vlineto
            21 150 rlineto
            endchar
          </CharString>
          <CharString index="177">
            rmoveto
            156 129 78 148 16 hvcurveto
            -115 25 rlineto
            -87 -29 -62 -33 -95 hhcurveto
            -94 -55 33 87 -29 364 callsubr
            return
          </CharString>
          <CharString index="178">
            736 rmoveto
            141 callgsubr
            return
          </CharString>
          <CharString index="179">
            79 60 -56 -144 -143 -60 -62 -79 -82 -59 75 130 136 62 64 79 hvcurveto
            return
          </CharString>
          <CharString index="180">
            79 60 -56 -144 -142 -60 -63 -79 -82 -59 75 130 140 62 60 79 hvcurveto
            return
          </CharString>
          <CharString index="181">
            22 18 -18 -22 hvcurveto
            -148 vlineto
            -22 -18 -18 -22 vhcurveto
            -148 368 callsubr
            return
          </CharString>
          <CharString index="182">
            142 callgsubr
            -219 -355 -5 -324 vvcurveto
            -79 169 69 vlineto
            return
          </CharString>
          <CharString index="183">
            -34 -339 rmoveto
            -39 124 rlineto
            42 26 19 30 43 -33 callgsubr
            return
          </CharString>
          <CharString index="184">
            243 1377 -161 -689 hlineto
            61 callgsubr
          </CharString>
          <CharString index="185">
            1244 rmoveto
            55 93 -369 236 -90 -143 rlineto
            return
          </CharString>
          <CharString index="186">
            1594 rmoveto
            -392 -224 55 callsubr
            return
          </CharString>
          <CharString index="187">
            -443 rmoveto
            -623 hlineto
            59 443 rlineto
            625 hlineto
            return
          </CharString>
          <CharString index="188">
            172 1377 -223 vlineto
            102 callgsubr
          </CharString>
          <CharString index="189">
            271 -215 113 0 269 215 rlineto
            return
          </CharString>
          <CharString index="190">
            1411 rmoveto
            -61 -48 -46 -61 -36 17 -33 return
          </CharString>
          <CharString index="191">
            173 1377 110 callgsubr
            return
          </CharString>
          <CharString index="192">
            rmoveto
            229 736 226 -736 rlineto
            return
          </CharString>
          <CharString index="193">
            -1154 rmoveto
            -31 callgsubr
            return
          </CharString>
          <CharString index="194">
            -458 503 458 503 rlineto
            return
          </CharString>
          <CharString index="195">
            677 122 63 callsubr
            return
          </CharString>
          <CharString index="196">
            9 28 35 vvcurveto
            61 -48 46 -61 vhcurveto
            return
          </CharString>
          <CharString index="197">
            rmoveto
            -319 -270 -246 -464 return
          </CharString>
          <CharString index="198">
            1809 rmoveto
            -253 -161 return
          </CharString>
          <CharString index="199">
            1611 rmoveto
            -61 -48 -46 -61 return
          </CharString>
          <CharString index="200">
            1377 140 callsubr
            return
          </CharString>
          <CharString index="201">
            1258 rmoveto
            248 181 return
          </CharString>
          <CharString index="202">
            1140 1080 rmoveto
            -1080 return
          </CharString>
          <CharString index="203">
            -480 -1060 -370 -480 return
          </CharString>
          <CharString index="204">
            -150 rmoveto
            -100 -150 100 hlineto
            return
          </CharString>
          <CharString index="205">
            143 -392 130 21 rlineto
            return
          </CharString>
          <CharString index="206">
            74 hhcurveto
            80 14 callgsubr
            return
          </CharString>
          <CharString index="207">
            29 -294 rlineto
            139 hlineto
            endchar
          </CharString>
          <CharString index="208">
            -9 callsubr
            625 0 return
          </CharString>
          <CharString index="209">
            -294 rlineto
            139 431 return
          </CharString>
          <CharString index="210">
            868 -65 callgsubr
            return
          </CharString>
          <CharString index="211">
            698 -85 callsubr
            return
          </CharString>
          <CharString index="212">
            462 126 callsubr
            return
          </CharString>
          <CharString index="213">
            160 1460 530 return
          </CharString>
          <CharString index="214">
            9 -28 151 callsubr
            return
          </CharString>
          <CharString index="215">
            rlineto
            -36 48 73 -38 104 hhcurveto
            return
          </CharString>
          <CharString index="216">
            rmoveto
            -124 -54 -90 -34 -266 -1 rrcurveto
            -248 -172 -153 -213 -135 56 -92 121 -64 hvcurveto
            -76 -50 -40 -66 -68 vvcurveto
            -104 83 -94 182 vhcurveto
            188 hlineto
            136 102 -51 -100 -115 -102 -58 -232 -236 -56 57 123 hvcurveto
            -152 hlineto
            -214 109 -103 336 320 183 114 207 162 -160 124 -212 vhcurveto
            -190 hlineto
            -109 -32 38 50 40 23 40 32 22 hvcurveto
            -14 44 42 -6 71 hhcurveto
            249 147 150 208 120 -61 89 -122 56 hvcurveto
            118 100 3 28 90 hvcurveto
            -532 -54 rmoveto
            154 79 -83 -159 -155 -81 -91 -148 -172 -80 102 143 141 78 102 170 hvcurveto
            endchar
          </CharString>
          <CharString index="217">
            rmoveto
            195 131 52 68 124 hvcurveto
            656 -464 vlineto
            21 -144 rlineto
            271 -420 hlineto
            -43 -80 -87 -23 -95 hhcurveto
            -240 -126 166 400 425 192 140 199 113 91 -36 -79 84 hvcurveto
            105 109 rlineto
            99 -108 -106 52 -180 hhcurveto
            -296 -280 -236 -474 -476 210 -236 326 hvcurveto
            endchar
          </CharString>
          <CharString index="218">
            rmoveto
            -175 hlineto
            -358 -886 -394 886 -180 0 454 -998 rlineto
            69 hlineto
            -78 -174 -72 -60 -209 -29 rrcurveto
            26 -139 291 37 109 117 96 229 rlinecurve
            endchar
          </CharString>
          <CharString index="219">
            rmoveto
            -208 hlineto
            -443 -855 rlineto
            12 82 9 145 136 vvcurveto
            492 -168 -1053 204 vlineto
            448 859 rlineto
            -13 -97 -9 -132 -137 vvcurveto
            -493 168 vlineto
            endchar
          </CharString>
          <CharString index="220">
            3 3 0 3 hhcurveto
            -224 138 vlineto
            24 356 rlineto
            14 -48 -42 9 -59 hhcurveto
            -191 -106 -99 -173 -81 hvcurveto
            -31 249 rlineto
            -292 -129 164 return
          </CharString>
          <CharString index="221">
            rmoveto
            126 -96 87 -171 -112 -104 -49 -92 -80 vhcurveto
            101 -77 rlineto
            72 60 65 25 65 hhcurveto
            75 43 -37 -60 -89 -80 -48 -318 306 callsubr
            return
          </CharString>
          <CharString index="222">
            rmoveto
            137 125 callgsubr
            22 42 54 337 callsubr
            -54 hvcurveto
            -90 -78 rlineto
            -82 80 102 -29 106 hhcurveto
            166 124 77 154 hvcurveto
            endchar
          </CharString>
          <CharString index="223">
            rmoveto
            580 780 rlineto
            130 -740 -146 538 vlineto
            -584 -780 rlineto
            -127 770 vlineto
            22 143 rlineto
            endchar
          </CharString>
          <CharString index="224">
            rmoveto
            90 -106 76 -177 -163 -117 -71 -99 -83 43 -43 82 236 callsubr
            -63 46 -113 35 vhcurveto
            80 8 62 return
          </CharString>
          <CharString index="225">
            168 767 hlineto
            82 55 105 94 124 hhcurveto
            159 21 -13 callgsubr
            108 callgsubr
            endchar
          </CharString>
          <CharString index="226">
            -178 -86 -138 -117 -60 hvcurveto
            120 -59 rlineto
            96 52 59 73 87 126 71 -200 187 return
          </CharString>
          <CharString index="227">
            -84 rlineto
            93 hlineto
            94 48 -27 -67 -56 232 callsubr
            120 96 -56 38 -114 18 hvcurveto
            105 18 return
          </CharString>
          <CharString index="228">
            rmoveto
            -884 -452 0 -170 883 -452 68 129 -793 408 793 407 rlineto
            return
          </CharString>
          <CharString index="229">
            -203 -339 rmoveto
            101 hlineto
            39 70 rlineto
            48 88 10 32 32 vvcurveto
            62 -46 46 -63 return
          </CharString>
          <CharString index="230">
            546 129 -214 446 hlineto
            232 70 114 114 163 return
          </CharString>
          <CharString index="231">
            1615 rmoveto
            -74 -402 121 -21 131 391 rlineto
            return
          </CharString>
          <CharString index="232">
            800 139 -626 489 510 143 -510 hlineto
            return
          </CharString>
          <CharString index="233">
            1819 rmoveto
            -94 -144 412 -164 51 90 rlineto
            return
          </CharString>
          <CharString index="234">
            354 94 callsubr
            249 3 callsubr
            return
          </CharString>
          <CharString index="235">
            rmoveto
            -106 -100 -27 -77 -92 hvcurveto
            78 -83 rlineto
            53 68 68 23 return
          </CharString>
          <CharString index="236">
            97 42 -30 -34 -44 -38 -19 -72 -22 vhcurveto
            -122 23 return
          </CharString>
          <CharString index="237">
            1410 rmoveto
            -73 -404 -53 callgsubr
            return
          </CharString>
          <CharString index="238">
            320 vvcurveto
            158 -148 150 -246 vhcurveto
            return
          </CharString>
          <CharString index="239">
            35 vvcurveto
            62 -48 46 -61 vhcurveto
            -57 callgsubr
            return
          </CharString>
          <CharString index="240">
            rlineto
            181 130 -162 hlineto
            59 443 rlineto
            return
          </CharString>
          <CharString index="241">
            1821 rmoveto
            -113 hlineto
            -271 -215 return
          </CharString>
          <CharString index="242">
            91 callsubr
            -251 161 -75 -85 return
          </CharString>
          <CharString index="243">
            -285 314 -39 42 -41 42 -49 31 rlinecurve
            return
          </CharString>
          <CharString index="244">
            39 89 vvcurveto
            -420 -5 rmoveto
            34 42 28 95 return
          </CharString>
          <CharString index="245">
            -46 -62 -34 8 -29 20 callsubr
            27 return
          </CharString>
          <CharString index="246">
            vvcurveto
            -111 91 -86 152 52 35 6 8 return
          </CharString>
          <CharString index="247">
            rmoveto
            -188 hlineto
            20 -923 rlineto
            151 hlineto
            return
          </CharString>
          <CharString index="248">
            rmoveto
            -22 callgsubr
            544 609 rlineto
            return
          </CharString>
          <CharString index="249">
            -27 callsubr
            9 -28 21 -47 hvcurveto
            100 return
          </CharString>
          <CharString index="250">
            994 1377 -103 callsubr
            return
          </CharString>
          <CharString index="251">
            716 1399 90 callsubr
            return
          </CharString>
          <CharString index="252">
            595 1545 70 callsubr
            return
          </CharString>
          <CharString index="253">
            59 443 293 0 -61 -443 rlineto
            return
          </CharString>
          <CharString index="254">
            rmoveto
            -600 -1500 600 hlineto
            endchar
          </CharString>
          <CharString index="255">
            1596 rmoveto
            -61 -47 -46 -61 -35 return
          </CharString>
          <CharString index="256">
            -160 920 rmoveto
            -760 -760 return
          </CharString>
          <CharString index="257">
            254 -178 132 -340 vhcurveto
            return
          </CharString>
          <CharString index="258">
            22 -47 hvcurveto
            99 -214 103 0 -59 return
          </CharString>
          <CharString index="259">
            1377 rmoveto
            -244 hlineto
            -213 -943 -223 943 -242 0 -78 -1377 163 0 37 721 8 172 -3 248 -3 77 rlinecurve
            249 -971 174 0 232 971 rlineto
            -1 -79 1 -228 11 -192 43 -719 rcurveline
            167 hlineto
            endchar
          </CharString>
          <CharString index="260">
            1262 rmoveto
            23 -522 -488 178 -60 -169 507 -138 -305 -394 151 -104 266 421 294 -433 147 114 -331 396 495 138 -51 170 -490 -176 20 519 rlineto
            return
          </CharString>
          <CharString index="261">
            rmoveto
            -581 -142 408 -768 hlineto
            -214 -108 -131 -191 -82 -98 19 76 -119 vhcurveto
            -77 -115 rlineto
            -82 109 133 -43 136 hhcurveto
            363 107 250 230 hvcurveto
            endchar
          </CharString>
          <CharString index="262">
            rmoveto
            289 121 callgsubr
            311 222 121 322 hvcurveto
            -186 -2 rmoveto
            -236 -139 -65 -192 vhcurveto
            -192 588 199 hlineto
            187 137 -74 -213 hvcurveto
            endchar
          </CharString>
          <CharString index="263">
            1297 rmoveto
            59 48 45 61 62 -48 46 -59 -64 -47 -46 -62 -61 47 -45 64 hvcurveto
            411 hmoveto
            63 48 45 61 62 -48 46 -63 -60 -47 -46 -62 -61 47 -45 60 hvcurveto
            return
          </CharString>
          <CharString index="264">
            rmoveto
            183 -104 149 -203 -203 -106 -149 -183 -180 106 -154 203 203 104 154 180 vhcurveto
            -151 hmoveto
            -152 -58 -65 -98 -101 -57 return
          </CharString>
          <CharString index="265">
            rmoveto
            110 119 -110 171 -134 hlineto
            -12 -171 -192 0 230 380 -124 51 -270 -454 rlineto
            -96 357 -112 145 vlineto
            endchar
          </CharString>
          <CharString index="266">
            -202 -339 rmoveto
            100 hlineto
            40 70 rlineto
            48 88 10 32 32 vvcurveto
            62 -46 46 -64 -62 -48 -49 callgsubr
            return
          </CharString>
          <CharString index="267">
            -32 -52 -59 hvcurveto
            134 5 61 63 123 hhcurveto
            61 48 -11 -22 45 hvcurveto
            -148 -177 rmoveto
            74 48 -33 -75 -63 -50 -49 339 callsubr
          </CharString>
          <CharString index="268">
            234 rlineto
            26 21 18 -104 callgsubr
            335 -11 -92 callgsubr
            return
          </CharString>
          <CharString index="269">
            -91 -70 -72 -89 -54 25 -51 41 -28 hvcurveto
            -96 -397 152 0 162 372 rlineto
            30 63 10 46 50 vvcurveto
            88 -70 72 -93 vhcurveto
            return
          </CharString>
          <CharString index="270">
            1412 rmoveto
            -60 -48 -46 -62 -34 9 -29 21 -47 hvcurveto
            100 -214 54 callsubr
            23 callgsubr
            return
          </CharString>
          <CharString index="271">
            1188 rmoveto
            -769 -475 0 -172 760 -475 90 123 -706 437 706 433 rlineto
            return
          </CharString>
          <CharString index="272">
            -281 rmoveto
            -60 -50 -22 -70 -44 -53 12 20 -38 vhcurveto
            -54 -97 rlineto
            -30 52 77 -19 80 hhcurveto
            358 callsubr
            return
          </CharString>
          <CharString index="273">
            -488 vlineto
            -68 -54 -92 -38 -112 hhcurveto
            -202 -83 137 145 142 87 170 208 hvcurveto
            return
          </CharString>
          <CharString index="274">
            -331 156 -217 297 295 158 228 322 334 -154 214 -297 hvcurveto
            return
          </CharString>
          <CharString index="275">
            -124 60 -123 181 -42 hvcurveto
            -6 vlineto
            -202 -41 -112 -137 -206 175 callsubr
            return
          </CharString>
          <CharString index="276">
            139 104 102 139 139 -104 104 -139 -139 -104 -102 -139 -139 104 -104 139 hvcurveto
            return
          </CharString>
          <CharString index="277">
            rmoveto
            -157 -499 -488 -141 488 -496 157 496 493 141 -493 hlineto
            endchar
          </CharString>
          <CharString index="278">
            -294 0 48 -15 callsubr
            -625 0 return
          </CharString>
          <CharString index="279">
            rmoveto
            -67 -130 793 -407 -793 -408 68 -129 883 452 rlineto
            170 vlineto
            return
          </CharString>
          <CharString index="280">
            283 186 160 16 67 hhcurveto
            135 102 -64 -114 hvcurveto
            -17 callgsubr
            return
          </CharString>
          <CharString index="281">
            hlineto
            -49 -31 -41 -42 -39 -42 rrcurveto
            -285 -314 124 -106 544 609 rlineto
            endchar
          </CharString>
          <CharString index="282">
            vvcurveto
            -206 134 -206 312 232 124 108 78 59 vhcurveto
            544 return
          </CharString>
          <CharString index="283">
            rmoveto
            465 846 349 callsubr
            465 -848 rlineto
            -529 176 vlineto
            return
          </CharString>
          <CharString index="284">
            rmoveto
            -468 -126 468 hlineto
            -114 vmoveto
            -468 -126 468 hlineto
            endchar
          </CharString>
          <CharString index="285">
            -75 -58 -60 -73 -75 58 -60 75 77 58 60 75 73 -58 60 -77 hvcurveto
            return
          </CharString>
          <CharString index="286">
            -91 70 -72 91 93 70 72 91 87 -70 74 -93 -91 -70 -74 -87 vhcurveto
            return
          </CharString>
          <CharString index="287">
            -91 -70 -71 -90 -89 70 -74 91 93 70 74 89 90 -70 71 -93 hvcurveto
            return
          </CharString>
          <CharString index="288">
            426 -172 286 -335 -335 -172 -296 -418 return
          </CharString>
          <CharString index="289">
            rmoveto
            -491 -133 323 -1075 hlineto
            220 callsubr
            endchar
          </CharString>
          <CharString index="290">
            600 1546 rmoveto
            -71 -50 -51 -66 -68 50 -52 71 75 return
          </CharString>
          <CharString index="291">
            -71 -74 -94 -45 hvcurveto
            107 -54 rlineto
            60 32 19 callsubr
            return
          </CharString>
          <CharString index="292">
            hmoveto
            1377 -173 -1377 vlineto
            183 735 rmoveto
            return
          </CharString>
          <CharString index="293">
            rmoveto
            854 -1759 136 60 -856 1765 rlineto
            return
          </CharString>
          <CharString index="294">
            rmoveto
            854 1759 -134 66 -856 -1765 rlineto
            return
          </CharString>
          <CharString index="295">
            1594 rmoveto
            -77 -144 418 -170 53 90 rlineto
            return
          </CharString>
          <CharString index="296">
            -157 -399 -388 -141 388 -396 157 return
          </CharString>
          <CharString index="297">
            rmoveto
            -944 -1384 105 -70 947 1384 rlineto
            return
          </CharString>
          <CharString index="298">
            rmoveto
            -653 154 653 122 vlineto
            205 -653 return
          </CharString>
          <CharString index="299">
            1786 rmoveto
            -72 -49 -52 -66 -68 49 -52 72 74 return
          </CharString>
          <CharString index="300">
            -530 -160 370 -1460 160 hlineto
            endchar
          </CharString>
          <CharString index="301">
            rmoveto
            -131 -90 -66 -109 -41 hvcurveto
            106 -39 -73 69 -154 hhcurveto
            -86 -95 -26 -41 -89 hvcurveto
            46 -127 rlineto
            38 86 52 16 70 hhcurveto
            116 66 -61 -147 hvcurveto
            -86 -90 vlineto
            -281 -148 -120 -219 -196 119 -129 186 134 77 52 140 83 hvcurveto
            -130 74 92 -62 142 hhcurveto
            114 84 42 63 80 hvcurveto
            -78 115 rlineto
            -50 -66 -54 -29 -78 hhcurveto
            -141 -67 108 239 -18 hvcurveto
            538 hlineto
            3 26 1 32 36 vvcurveto
            320 -105 196 -239 vhcurveto
            -5 -139 rmoveto
            137 44 -117 -222 4 hvcurveto
            -378 hlineto
            250 18 55 89 120 hhcurveto
            -357 -411 rmoveto
            -83 9 -77 16 -71 vhcurveto
            -123 -65 -60 -64 -90 hhcurveto
            -89 -59 70 134 129 62 85 192 hvcurveto
            endchar
          </CharString>
          <CharString index="302">
            rmoveto
            -155 -84 -118 -143 -69 hvcurveto
            173 -79 -88 88 -145 hhcurveto
            -214 -84 -170 -223 -220 82 -175 224 155 86 116 146 67 hvcurveto
            -174 74 93 -88 145 hhcurveto
            214 84 170 223 220 -82 175 -224 hvcurveto
            -608 -136 rmoveto
            125 56 -143 -95 45 hvcurveto
            -138 -54 -56 -138 -116 hhcurveto
            -96 -47 84 173 175 49 82 94 hvcurveto
            604 -3 rmoveto
            96 47 -83 -173 -175 -49 -82 -94 -126 -55 143 95 -45 hvcurveto
            138 54 56 137 116 hhcurveto
            endchar
          </CharString>
          <CharString index="303">
            393 rmoveto
            233 -164 77 -152 26 vhcurveto
            132 30 124 94 177 vvcurveto
            270 -246 77 -241 vhcurveto
            -339 -1377 370 hlineto
            253 263 93 300 hvcurveto
            -238 628 rmoveto
            -162 -90 -68 -163 vhcurveto
            -222 446 205 hlineto
            166 104 -60 -156 hvcurveto
            55 -634 rmoveto
            -204 -168 -40 -135 vhcurveto
            -227 505 235 hlineto
            160 135 -53 -208 hvcurveto
            endchar
          </CharString>
          <CharString index="304">
            rmoveto
            -278 -148 -184 -350 hvcurveto
            -965 vlineto
            168 21 rlineto
            501 vlineto
            -81 72 94 -40 116 hhcurveto
            278 134 255 295 350 -130 198 -306 hvcurveto
            -4 -133 rmoveto
            175 82 -137 -277 -266 -93 -145 -174 -100 -88 48 84 -56 hvcurveto
            265 vlineto
            273 65 155 189 vhcurveto
            endchar
          </CharString>
          <CharString index="305">
            rmoveto
            -129 -139 -42 -78 -95 hvcurveto
            80 -110 rlineto
            66 87 94 29 101 hhcurveto
            172 110 -106 -228 20 hvcurveto
            -496 -133 498 hlineto
            -249 -16 -120 -107 -178 hhcurveto
            -103 -90 32 64 -87 hvcurveto
            -82 -111 rlineto
            -81 97 135 -44 131 hhcurveto
            319 168 226 330 329 -154 213 -323 hvcurveto
            endchar
          </CharString>
          <CharString index="306">
            98 -104 rlineto
            82 103 108 51 153 hhcurveto
            168 130 -73 -147 -159 -144 -67 -154 hvcurveto
            -210 hlineto
            -20 -147 rlineto
            244 hlineto
            184 138 -77 -185 -172 -123 -108 -215 -148 -124 53 93 -108 hvcurveto
            -107 -96 rlineto
            return
          </CharString>
          <CharString index="307">
            rmoveto
            73 -351 rlineto
            483 141 -343 hlineto
            -103 487 rlineto
            345 141 -372 hlineto
            -102 467 471 0 21 141 -752 0 -404 -1377 177 0 99 351 rlineto
            45 146 rmoveto
            184 743 147 -743 rlineto
            endchar
          </CharString>
          <CharString index="308">
            rmoveto
            39 127 rlineto
            14 -32 -35 8 -45 hhcurveto
            -126 -68 -49 -177 -77 hvcurveto
            -213 -488 -328 692 -192 0 426 -848 rlineto
            -529 176 531 vlineto
            288 615 rlineto
            83 38 36 29 53 hhcurveto
            25 19 -4 -4 16 hvcurveto
            endchar
          </CharString>
          <CharString index="309">
            150 493 108 hlineto
            207 -493 171 0 -244 565 224 488 -165 0 -189 347 callsubr
            -184 428 -170 0 224 -488 -244 -565 166 0 208 493 rlineto
            112 hlineto
            endchar
          </CharString>
          <CharString index="310">
            179 132 -556 vlineto
            216 callsubr
            257 -690 rmoveto
            166 callsubr
            return
          </CharString>
          <CharString index="311">
            -507 567 rmoveto
            211 95 -167 -319 14 hvcurveto
            -642 hlineto
            319 16 95 167 211 hhcurveto
            -1131 vmoveto
            -217 -100 180 332 -8 hvcurveto
            647 hlineto
            -332 -7 -94 -180 -221 hhcurveto
            endchar
          </CharString>
          <CharString index="312">
            rmoveto
            36 -114 rlineto
            342 38 166 106 246 vvcurveto
            170 -116 105 -198 -161 -142 -81 -144 -136 118 -64 133 91 59 29 118 callgsubr
            28 68 66 311 callsubr
          </CharString>
          <CharString index="313">
            -136 87 -189 64 -160 16 rrcurveto
            292 -135 -292 vlineto
            -245 -24 -121 -166 -160 vvcurveto
            -185 132 -117 234 -78 vhcurveto
            -636 vlineto
            -131 -7 -104 16 -235 141 rrcurveto
            return
          </CharString>
          <CharString index="314">
            1647 rmoveto
            -129 -93 -90 -116 -113 93 -90 129 129 93 90 113 116 -93 90 -129 hvcurveto
            -92 vmoveto
            67 41 -44 -70 -70 -41 -43 -67 -65 -43 43 70 70 43 44 65 hvcurveto
            return
          </CharString>
          <CharString index="315">
            -138 vmoveto
            165 91 -114 -220 11 hvcurveto
            -538 hlineto
            222 12 92 112 167 hhcurveto
            267 -468 rmoveto
            -245 -16 -90 -109 -163 hhcurveto
            -165 -88 109 245 -16 hvcurveto
            endchar
          </CharString>
          <CharString index="316">
            rmoveto
            134 -138 -268 -266 268 -268 -134 -134 -268 268 -268 -268 -134 134 268 268 -268 266 134 138 268 -270 rlineto
            endchar
          </CharString>
          <CharString index="317">
            rmoveto
            -211 -46 -99 -110 -167 vhcurveto
            92 -54 rlineto
            122 159 86 128 244 vvcurveto
            246 -86 128 -122 159 vhcurveto
            -92 -54 rlineto
            110 -168 46 -99 -212 vvcurveto
            endchar
          </CharString>
          <CharString index="318">
            -60 -73 -93 -55 -154 hhcurveto
            -234 -184 153 410 421 196 144 226 105 97 -29 -73 87 hvcurveto
            97 113 rlineto
            88 -109 -110 46 -180 hhcurveto
            return
          </CharString>
          <CharString index="319">
            -1154 -711 0 -172 1154 -720 rlineto
            152 1603 hlineto
            -152 -1422 rmoveto
            -1010 624 1010 621 rlineto
            endchar
          </CharString>
          <CharString index="320">
            rmoveto
            -606 -133 438 -762 hlineto
            -283 -219 -117 -312 -52 vhcurveto
            28 -130 rlineto
            424 71 247 170 352 vvcurveto
            endchar
          </CharString>
          <CharString index="321">
            -168 -472 hlineto
            -74 -65 -123 -46 -101 hhcurveto
            -124 -59 56 140 hvcurveto
            355 callsubr
            131 121 47 72 79 vhcurveto
            -446 return
          </CharString>
          <CharString index="322">
            1377 rmoveto
            -40 callgsubr
            199 0 -438 743 391 634 -188 0 -303 -529 -302 529 rlineto
            endchar
          </CharString>
          <CharString index="323">
            -138 -108 108 122 118 70 84 141 101 66 -37 -77 68 hvcurveto
            101 92 rlineto
            120 -110 -105 28 -119 hhcurveto
            return
          </CharString>
          <CharString index="324">
            rmoveto
            165 76 -137 -275 -281 -88 -130 -175 -100 -86 50 82 -55 hvcurveto
            522 vlineto
            85 57 89 84 117 hhcurveto
            endchar
          </CharString>
          <CharString index="325">
            rmoveto
            13 -405 -380 135 -51 -158 387 -114 -247 -320 134 -98 20 callgsubr
            117 callgsubr
            return
          </CharString>
          <CharString index="326">
            1546 rmoveto
            -72 -48 -51 -66 -68 48 -52 72 74 50 52 68 66 -50 51 -74 hvcurveto
            157 -493 213 callsubr
          </CharString>
          <CharString index="327">
            -183 127 -109 187 106 87 26 28 57 vhcurveto
            -45 123 rlineto
            -23 -57 -57 -14 -63 hhcurveto
            -102 -72 39 104 hvcurveto
            return
          </CharString>
          <CharString index="328">
            168 21 rlineto
            502 vlineto
            -82 70 93 -40 115 hhcurveto
            274 132 231 319 330 -100 218 -281 return
          </CharString>
          <CharString index="329">
            rmoveto
            -155 347 -149 -70 194 -328 rlineto
            -218 51 rmoveto
            -176 347 -146 -77 216 -326 rlineto
            return
          </CharString>
          <CharString index="330">
            437 1773 rmoveto
            -104 -102 266 -248 71 66 rlineto
            134 -18 rmoveto
            -61 -48 -48 -61 -61 48 -48 61 63 return
          </CharString>
          <CharString index="331">
            340 490 -192 0 -247 -392 -244 392 -199 0 341 -497 -389 -556 rlineto
            endchar
          </CharString>
          <CharString index="332">
            -30 -28 -40 -75 -46 96 -111 hhcurveto
            -98 -70 -74 -94 -45 hvcurveto
            106 -54 rlineto
            60 32 29 33 45 73 55 -97 105 hhcurveto
            return
          </CharString>
          <CharString index="333">
            1260 rmoveto
            184 102 149 122 16 hvcurveto
            -117 26 rlineto
            -100 -27 -61 -68 -97 hhcurveto
            -94 -57 68 100 return
          </CharString>
          <CharString index="334">
            -87 -45 -51 -84 -54 -46 8 30 -66 vhcurveto
            -54 -125 rlineto
            -36 80 52 -17 99 hhcurveto
            175 105 91 186 hvcurveto
            return
          </CharString>
          <CharString index="335">
            rmoveto
            212 46 99 110 168 vhcurveto
            -92 54 rlineto
            -122 -159 -86 -128 -246 96 callgsubr
          </CharString>
          <CharString index="336">
            128 92 -96 -128 -128 -92 -94 -128 -128 -90 94 128 128 90 96 128 hvcurveto
            endchar
          </CharString>
          <CharString index="337">
            1154 720 rlineto
            172 vlineto
            -1154 -711 rmoveto
            1245 vlineto
            1010 -621 rlineto
            endchar
          </CharString>
          <CharString index="338">
            rmoveto
            -130 -180 -171 -123 171 -179 130 179 169 123 -169 hlineto
            endchar
          </CharString>
          <CharString index="339">
            -47 -38 -104 -77 -76 25 55 -62 hvcurveto
            -92 -76 rlineto
            -85 82 113 -32 107 hhcurveto
            195 112 83 return
          </CharString>
          <CharString index="340">
            rmoveto
            -850 -525 0 -172 850 -532 0 180 -706 437 706 433 rlineto
            return
          </CharString>
          <CharString index="341">
            194 328 -148 70 rlineto
            172 -347 rmoveto
            106 -56 216 326 -146 77 rlineto
            return
          </CharString>
          <CharString index="342">
            16 -30 -36 10 -46 hhcurveto
            -140 -110 -80 -100 -92 80 -48 130 146 102 100 80 hvcurveto
            return
          </CharString>
          <CharString index="343">
            -23 vhcurveto
            -102 -23 -60 -53 -75 vvcurveto
            -116 116 -80 200 195 123 79 121 83 return
          </CharString>
          <CharString index="344">
            rmoveto
            -177 vlineto
            706 -435 -706 -436 0 -181 850 532 rlineto
            172 vlineto
            return
          </CharString>
          <CharString index="345">
            vlineto
            98 32 57 111 57 57 -10 -30 68 vhcurveto
            54 125 rlineto
            38 -84 -62 14 -100 hhcurveto
            endchar
          </CharString>
          <CharString index="346">
            -156 -400 -318 -90 -169 -166 -82 hvcurveto
            -129 416 140 -241 vlineto
            return
          </CharString>
          <CharString index="347">
            -1 -23 rlineto
            122 -44 -136 99 -199 hhcurveto
            -161 -143 -61 -137 -116 hvcurveto
            return
          </CharString>
          <CharString index="348">
            -86 29 -85 77 -58 hvcurveto
            -695 hlineto
            216 callsubr
            -233 -145 -152 -177 return
          </CharString>
          <CharString index="349">
            1546 rmoveto
            -72 -49 -51 -66 -68 49 -52 72 74 49 52 68 66 -49 51 -74 hvcurveto
            return
          </CharString>
          <CharString index="350">
            1094 912 rmoveto
            131 -160 vlineto
            47 -15 callsubr
            171 callsubr
            return
          </CharString>
          <CharString index="351">
            rmoveto
            93 61 39 31 42 hvcurveto
            57 callsubr
            313 callsubr
            137 vhcurveto
            endchar
          </CharString>
          <CharString index="352">
            972 rmoveto
            2 -16 294 74 rlineto
            -84 -62 -182 -140 -78 -100 6 -14 rcurveline
            80 32 108 38 92 34 -46 -26 -126 -96 -64 -108 6 -16 rcurveline
            84 40 158 74 -2 vvcurveto
            -84 -76 -70 -88 -38 -86 rrcurveto
            6 -16 234 120 -50 -46 -66 -72 -34 -104 rlinecurve
            8 -14 150 104 rlineto
            -30 -34 -36 -60 -14 -50 8 -16 rcurveline
            36 18 52 26 68 22 -42 -28 -38 -24 -22 -28 4 -14 rcurveline
            -2 20 48 -2 0 hhcurveto
            -104 -56 rlineto
            0 110 -148 -102 174 hvcurveto
            -116 194 202 -18 100 hhcurveto
            58 54 6 2 14 hvcurveto
            8 -10 44 -10 24 vhcurveto
            12 18 22 74 8 44 32 160 12 60 148 78 rrcurveto
            16 32 56 38 56 hhcurveto
            72 100 -36 -12 62 hvcurveto
            -8 42 36 -6 28 hhcurveto
            48 100 66 34 42 hvcurveto
            -2 4 20 -4 22 hhcurveto
            12 14 0 6 12 hvcurveto
            36 16 82 202 28 vvcurveto
            22 -12 28 -6 64 vhcurveto
            -4 38 -4 86 -6 18 -30 82 -178 36 -202 86 rrcurveto
            52 -120 -60 68 0 hhcurveto
            0 6 20 26 54 -48 146 -168 -76 -70 -22 -6 -20 hvcurveto
            -38 -208 90 -100 hhcurveto
            -244 -220 -172 -134 -170 hvcurveto
            -130 -102 -98 -92 -46 -46 rrcurveto
            488 162 rmoveto
            -4 6 rlineto
            50 26 154 220 232 hhcurveto
            92 102 -30 -16 44 hvcurveto
            2 -8 rlineto
            -18 -14 -24 -26 -4 -30 12 -2 rcurveline
            34 96 134 52 102 hhcurveto
            54 24 -38 -20 12 hvcurveto
            -10 hlineto
            10 -16 -26 6 -34 hhcurveto
            -102 -224 -92 -22 -56 hvcurveto
            -4 -10 154 -26 rlineto
            0 22 -82 -38 64 hvcurveto
            24 hlineto
            -30 34 -10 32 24 vvcurveto
            78 78 16 40 18 12 -2 -2 2 vhcurveto
            -4 -8 rlineto
            -24 -6 -64 -18 -52 vvcurveto
            -66 100 -58 186 vhcurveto
            4 10 -88 106 8 2 rlineto
            78 -66 90 -56 128 -44 134 -48 106 -34 26 -34 rrcurveto
            -36 -58 -24 -38 vvcurveto
            -30 38 -48 24 -28 vhcurveto
            12 hlineto
            -2 20 -2 14 12 vvcurveto
            30 8 8 8 18 10 -54 -36 -48 -18 -40 0 0 -140 14 30 -114 vhcurveto
            -154 38 -272 190 -174 144 rrcurveto
            -100 42 -6 -6 106 -120 rlineto
            12 -12 24 -34 -22 vvcurveto
            -36 -30 -52 -6 -8 vhcurveto
            -38 64 -10 110 rlineto
            -10 hlineto
            -8 -26 -20 -68 -66 vvcurveto
            -156 140 -54 20 -10 vhcurveto
            24 -6 54 -10 26 -2 2 8 rcurveline
            -34 30 -46 34 48 vvcurveto
            4 0 4 2 6 vhcurveto
            6 hlineto
            30 -50 62 -44 118 -42 238 -86 8 32 68 -56 0 0 -56 -36 -38 -4 -40 8 -168 58 -70 38 -18 -8 -226 -58 -52 -2 -138 18 -104 90 -50 58 -20 6 rcurveline
            -90 112 -122 14 -8 vhcurveto
            78 -32 rlineto
            -10 vlineto
            -44 -26 -86 -50 -78 vvcurveto
            12 -2 32 28 68 30 26 2 rlinecurve
            -2 2 0 -2 vvcurveto
            -34 -52 rlineto
            -24 -4 -34 -10 -28 vhcurveto
            -36 -98 54 28 -36 hvcurveto
            -8 -6 14 -44 70 -88 54 -40 rlinecurve
            -26 -12 -18 -30 0 hhcurveto
            0 -84 52 28 -38 hvcurveto
            -8 -8 20 -42 40 -64 24 -26 rlinecurve
            -4 vlineto
            -122 -242 62 136 -164 hvcurveto
            128 76 -6 10 -172 -38 -12 10 rlineto
            64 30 142 62 28 42 -8 8 rcurveline
            -40 -6 -98 -2 0 0 -6 4 26 56 54 36 56 vvcurveto
            50 -82 86 -30 50 vhcurveto
            -24 40 -32 74 76 vvcurveto
            12 2 14 2 14 vhcurveto
            4 2 20 -32 10 2 2 18 6 40 6 20 rlinecurve
            4 hlineto
            10 -28 14 -52 36 -26 8 8 rcurveline
            -10 32 -4 34 34 vvcurveto
            106 46 98 78 56 vhcurveto
            -2 10 -40 -4 -34 -8 -40 -12 rlinecurve
            208 hmoveto
            8 -8 rlineto
            0 42 44 14 42 hvcurveto
            -76 48 -30 28 -20 vhcurveto
            12 hlineto
            -4 18 -2 18 16 vvcurveto
            66 24 52 2 4 vhcurveto
            102 52 10 14 rlineto
            0 -32 10 -48 -178 -40 -126 -48 -14 vhcurveto
            130 -182 rmoveto
            12 -6 rlineto
            0 70 12 88 64 84 -18 0 hhcurveto
            6 6 -54 98 rlineto
            8 vlineto
            12 2 42 6 26 6 2 8 rcurveline
            70 -66 -92 30 0 hhcurveto
            -2 -8 54 -68 rlineto
            -4 vlineto
            -42 -92 -18 0 hhcurveto
            -2 -8 62 -34 rlineto
            -6 vlineto
            -66 -12 -70 -32 -36 -32 rrcurveto
            return
          </CharString>
          <CharString index="353">
            1399 rmoveto
            -150 -114 -104 -166 -169 114 -101 150 146 111 101 169 166 -111 104 -146 hvcurveto
            -102 vmoveto
            105 19 -83 -85 -88 -19 -86 -105 -108 -18 90 84 87 18 81 108 hvcurveto
            750 -240 rmoveto
            -1066 -418 50 -113 1064 418 rlineto
            -800 -427 rmoveto
            -150 -112 -105 -166 -169 112 -102 150 148 111 102 169 165 -111 106 -148 hvcurveto
            554 hmoveto
            -150 -114 -105 -166 -169 114 -102 150 146 111 102 169 165 -111 106 -146 hvcurveto
            -554 -103 rmoveto
            107 17 -83 -85 -89 -17 -86 -107 -106 -20 90 85 87 20 81 106 hvcurveto
            554 hmoveto
            103 21 -83 -85 -89 -21 -86 -103 -108 -21 90 85 87 21 81 108 hvcurveto
            endchar
          </CharString>
          <CharString index="354">
            1399 rmoveto
            -208 -170 -110 -182 -90 45 -71 74 -55 hvcurveto
            -88 -54 -74 -89 -107 vvcurveto
            -159 92 -75 217 -74 vhcurveto
            200 -66 47 -36 -92 vvcurveto
            -87 -87 -54 -114 -112 -80 30 56 -78 vhcurveto
            -82 -113 rlineto
            -66 87 110 -44 147 hhcurveto
            224 161 110 180 94 -47 70 -72 54 hvcurveto
            88 53 72 89 108 vvcurveto
            157 -89 77 -217 72 vhcurveto
            -202 68 -45 38 90 vvcurveto
            86 77 56 114 112 73 -31 -55 79 vhcurveto
            81 115 rlineto
            63 -88 -101 44 -146 hhcurveto
            -156 -566 rmoveto
            277 -102 65 -22 -111 vvcurveto
            -59 -35 -63 -61 -51 vhcurveto
            -277 100 -65 20 117 vvcurveto
            56 34 64 62 51 vhcurveto
            endchar
          </CharString>
          <CharString index="355">
            1697 rmoveto
            -135 -301 hlineto
            -245 -23 -121 -158 -160 vvcurveto
            -185 132 -117 234 -78 vhcurveto
            -554 vlineto
            -131 11 -104 61 -83 85 rrcurveto
            -100 -111 89 -88 140 -88 189 -12 rlinecurve
            -285 135 291 vlineto
            254 34 130 170 190 vvcurveto
            244 -183 113 -201 65 vhcurveto
            456 vlineto
            100 -13 88 -43 77 -72 rrcurveto
            103 106 -83 76 -125 68 -160 17 rlinecurve
            -135 -143 rmoveto
            -408 vlineto
            -147 60 -40 60 93 vvcurveto
            113 78 63 109 19 vhcurveto
            135 -625 rmoveto
            152 -63 51 -76 -112 vvcurveto
            -140 -69 -80 -134 -27 vhcurveto
            endchar
          </CharString>
          <CharString index="356">
            1219 rmoveto
            -108 -108 176 -180 rlineto
            -42 -66 -28 -84 -97 vvcurveto
            -99 27 -84 45 -68 vhcurveto
            -178 -178 108 -108 178 178 rlineto
            -43 68 84 -23 95 hhcurveto
            93 82 23 43 66 hvcurveto
            180 -177 108 109 -176 174 rlineto
            45 68 31 84 101 vvcurveto
            97 -29 86 -45 66 vhcurveto
            174 176 -108 108 -178 -178 rlineto
            45 -66 -84 23 -93 hhcurveto
            -95 -84 -25 -43 -68 hvcurveto
            247 -68 rmoveto
            168 87 -109 -178 -180 -87 -107 -168 -168 -89 107 180 178 89 109 168 hvcurveto
            endchar
          </CharString>
          <CharString index="357">
            -292 82 -224 158 -113 hvcurveto
            -74 -237 150 -39 64 212 rlineto
            -10 40 42 -5 45 hhcurveto
            335 172 292 418 292 -81 226 -159 114 hvcurveto
            77 248 -151 39 -64 -223 rlineto
            11 -40 -43 5 -46 hhcurveto
            -146 vmoveto
            36 32 -4 -8 29 hvcurveto
            -302 -1045 rlineto
            -81 81 -38 155 253 vvcurveto
            366 93 202 231 vhcurveto
            324 -566 rmoveto
            -366 -93 -197 -231 -36 -32 3 9 -30 vhcurveto
            302 1046 rlineto
            84 -82 36 -156 -257 vvcurveto
            endchar
          </CharString>
          <CharString index="358">
            1399 rmoveto
            -247 -195 -174 -320 -59 hvcurveto
            -162 hlineto
            -28 -116 175 0 -3 -186 -144 0 -28 -118 rlineto
            186 hlineto
            -328 47 170 -180 279 hhcurveto
            124 98 33 39 66 hvcurveto
            174 vlineto
            -52 -60 -98 -50 -124 hhcurveto
            -195 -100 112 252 -32 hvcurveto
            401 hlineto
            28 118 rlineto
            -436 186 475 hlineto
            29 116 rlineto
            -491 hlineto
            252 38 119 98 174 hhcurveto
            80 74 -20 -48 74 hvcurveto
            85 122 rlineto
            60 -90 -93 30 -137 hhcurveto
            endchar
          </CharString>
          <CharString index="359">
            -228 80 -175 143 -86 hvcurveto
            -84 -255 140 -42 73 248 rlineto
            -7 32 34 -3 35 hhcurveto
            295 158 228 322 230 -78 173 -142 85 hvcurveto
            84 252 -141 41 -76 -242 rlineto
            6 -31 -32 3 -35 hhcurveto
            -138 vmoveto
            24 21 -2 -4 21 hvcurveto
            -236 -762 rlineto
            -69 60 -35 113 183 vvcurveto
            281 93 131 181 vhcurveto
            270 -410 rmoveto
            -280 -91 -131 -181 -23 -22 2 4 -21 vhcurveto
            236 760 rlineto
            67 -59 35 -113 -183 vvcurveto
            endchar
          </CharString>
          <CharString index="360">
            1399 rmoveto
            -322 -190 -292 -456 -410 122 -264 335 239 194 182 304 294 -178 140 -212 -135 -109 -55 -131 -88 hvcurveto
            336 7 122 216 212 hhcurveto
            75 72 -20 -38 62 hvcurveto
            66 114 rlineto
            52 -78 -88 28 -106 hhcurveto
            -38 -640 rmoveto
            146 98 -74 -226 -214 -88 -132 -174 -195 -84 140 311 -7 hvcurveto
            116 68 104 79 132 hhcurveto
            endchar
          </CharString>
          <CharString index="361">
            1393 rmoveto
            -39 -127 338 -91 203 -193 16 -281 rlinecurve
            89 -62 -99 68 -129 hhcurveto
            -210 -169 -176 -263 -278 194 -164 225 264 162 228 312 519 -208 223 -486 134 hvcurveto
            249 -668 rmoveto
            110 81 -52 -119 85 hvcurveto
            -47 vlineto
            -264 -2 -96 -129 -163 hhcurveto
            -146 -98 121 194 192 100 104 129 hvcurveto
            endchar
          </CharString>
          <CharString index="362">
            941 rmoveto
            -141 -81 -99 -77 -39 hvcurveto
            115 -61 rlineto
            55 32 38 46 64 83 69 -111 158 hhcurveto
            143 79 97 77 39 hvcurveto
            -115 61 rlineto
            -56 -32 -38 -46 -64 -83 -69 114 -158 hhcurveto
            -378 vmoveto
            -141 -81 -98 -78 -39 hvcurveto
            115 -60 rlineto
            56 32 38 46 64 83 69 -112 158 hhcurveto
            143 79 97 77 39 hvcurveto
            -115 60 rlineto
            -55 -32 -38 -46 -64 -83 -69 113 -158 hhcurveto
            endchar
          </CharString>
          <CharString index="363">
            rmoveto
            62 112 rlineto
            -94 47 -51 46 52 vvcurveto
            60 51 25 200 20 vhcurveto
            232 24 188 144 251 vvcurveto
            245 -156 154 -297 -2 vhcurveto
            -53 hlineto
            439 482 rlineto
            144 -803 -145 594 vlineto
            -422 -483 rlineto
            -128 212 vlineto
            201 104 -74 -194 -179 -121 -85 -207 -20 hvcurveto
            -227 -20 -106 -72 -133 vvcurveto
            -114 86 -87 168 -70 vhcurveto
            endchar
          </CharString>
          <CharString index="364">
            599 rmoveto
            693 hlineto
            -277 778 rlineto
            -138 hlineto
            -117 -677 rmoveto
            183 570 181 -570 rlineto
            -436 -1099 rmoveto
            127 13 rlineto
            287 vlineto
            -35 40 52 -16 59 hhcurveto
            174 82 156 184 217 -90 124 -180 -168 -96 -115 -219 hvcurveto
            127 -16 rmoveto
            170 26 82 107 88 50 -68 -175 -159 -36 -80 -108 -50 -44 20 34 -33 vhcurveto
            endchar
          </CharString>
          <CharString index="365">
            -44 -63 -67 -46 -124 hhcurveto
            -160 -132 138 360 -6 hvcurveto
            688 hlineto
            4 36 1 37 24 vvcurveto
            456 -165 229 -248 -254 -178 -240 -402 -22 vhcurveto
            -12 hlineto
            -68 -35 36 66 50 18 42 23 50 hvcurveto
            -114 52 rlineto
            -38 -54 -40 -66 -88 vvcurveto
            718 415 rmoveto
            145 93 -139 -364 14 hvcurveto
            -530 hlineto
            348 19 103 155 156 hhcurveto
            endchar
          </CharString>
          <CharString index="366">
            rmoveto
            66 112 rlineto
            -100 50 -56 46 55 vvcurveto
            60 51 24 217 23 vhcurveto
            250 26 175 94 206 vvcurveto
            204 -142 90 -217 vhcurveto
            -148 hlineto
            449 360 rlineto
            130 -817 -143 592 vlineto
            -417 -346 rlineto
            -128 345 vlineto
            106 68 -44 -122 -133 -106 -36 -224 -23 hvcurveto
            -248 -24 -106 -70 -134 vvcurveto
            -113 86 -90 176 -74 vhcurveto
            endchar
          </CharString>
          <CharString index="367">
            687 rmoveto
            426 -173 286 -335 -334 -174 -296 -418 -426 172 -278 317 237 102 -114 -213 83 vhcurveto
            183 72 -67 201 -103 88 -193 38 rlinecurve
            211 116 74 226 292 vvcurveto
            -180 hmoveto
            -367 -96 -197 -232 -226 -102 195 367 368 96 201 232 232 96 -199 -368 vhcurveto
            endchar
          </CharString>
          <CharString index="368">
            rmoveto
            -456 194 -230 311 314 195 271 459 460 -182 232 -335 -175 -129 -64 -89 -106 vhcurveto
            89 -103 rlineto
            68 92 90 49 134 hhcurveto
            206 125 -139 -360 13 hvcurveto
            -830 hlineto
            -4 -36 -2 -38 -24 vvcurveto
            508 -544 rmoveto
            -214 -110 138 360 -15 hvcurveto
            667 hlineto
            -345 -20 -115 -153 -193 hhcurveto
            endchar
          </CharString>
          <CharString index="369">
            1399 rmoveto
            -238 -142 -157 -211 hvcurveto
            -256 -164 -117 164 -256 vlineto
            -123 -5 -92 -159 -51 vhcurveto
            -136 866 vlineto
            20 143 rlineto
            -677 hlineto
            104 58 19 100 109 vvcurveto
            248 414 117 -414 241 vlineto
            159 76 83 142 98 73 -35 -82 67 vhcurveto
            114 86 rlineto
            122 -89 -125 50 -144 hhcurveto
            endchar
          </CharString>
          <CharString index="370">
            hmoveto
            295 hlineto
            301 154 133 226 80 hvcurveto
            -131 53 rlineto
            -197 -89 -114 -63 -195 hhcurveto
            -127 345 hlineto
            376 174 -50 108 -326 -153 0 151 378 177 -50 108 -328 -152 rlineto
            467 -174 -547 vlineto
            -162 -75 52 -111 110 52 0 -151 -162 -76 47 -106 115 53 rlineto
            endchar
          </CharString>
          <CharString index="371">
            rmoveto
            -149 -117 -46 -78 -95 hvcurveto
            78 -115 rlineto
            75 90 84 24 106 hhcurveto
            180 92 -103 -246 16 hvcurveto
            -717 hlineto
            -4 -27 -1 -31 -34 vvcurveto
            -323 168 -194 272 288 176 208 342 335 -139 213 -328 vhcurveto
            3 -961 rmoveto
            -174 -99 117 208 -1 hvcurveto
            18 557 vlineto
            -253 -9 -98 -90 -176 hhcurveto
            endchar
          </CharString>
          <CharString index="372">
            1075 rmoveto
            -261 -140 -233 -317 -330 104 -218 284 114 105 48 108 77 hvcurveto
            -536 vlineto
            168 -21 rlineto
            1477 -143 vlineto
            -14 -115 rlineto
            89 -71 -96 48 -127 hhcurveto
            42 -135 rmoveto
            99 87 -50 -85 55 hvcurveto
            -526 vlineto
            -86 -57 -87 -76 -117 hhcurveto
            -163 -80 135 273 278 88 137 175 hvcurveto
            endchar
          </CharString>
          <CharString index="373">
            1053 rmoveto
            -158 -927 hlineto
            -204 23 -68 85 167 vvcurveto
            652 -168 -667 vlineto
            -201 130 -175 310 -23 vhcurveto
            -411 vlineto
            158 21 rlineto
            390 vlineto
            319 28 137 194 298 vvcurveto
            208 -19 162 -32 176 vhcurveto
            -171 hlineto
            35 -195 18 -187 -146 vvcurveto
            -238 -45 -134 -242 -27 vhcurveto
            endchar
          </CharString>
          <CharString index="374">
            559 rmoveto
            224 hlineto
            358 -559 209 0 -395 587 205 53 108 114 7 205 rlinecurve
            160 117 -170 hlineto
            -20 85 -50 64 -81 36 rrcurveto
            321 116 -876 hlineto
            -22 -130 rlineto
            220 hlineto
            188 99 -54 -117 32 hvcurveto
            -517 -117 529 hlineto
            -190 -6 -109 -69 -191 hhcurveto
            -223 hlineto
            endchar
          </CharString>
          <CharString index="375">
            1366 rmoveto
            -148 -302 hlineto
            -256 -36 -130 -218 -288 vvcurveto
            -302 131 -199 253 -32 vhcurveto
            -296 150 294 vlineto
            85 12 82 29 75 64 -81 119 rcurveline
            -67 -88 -67 -22 -79 hhcurveto
            -173 -106 119 281 278 105 135 174 76 67 -18 -65 88 hvcurveto
            84 112 -76 61 -81 32 -85 9 rlinecurve
            endchar
          </CharString>
          <CharString index="376">
            rmoveto
            -195 -140 -78 -91 -103 hvcurveto
            96 -103 rlineto
            68 83 96 63 155 hhcurveto
            219 130 -129 -348 19 hvcurveto
            -606 -146 606 hlineto
            -353 -17 -129 -160 -241 hhcurveto
            -128 -100 45 86 -94 hvcurveto
            -105 -100 rlineto
            -105 103 154 -71 181 hhcurveto
            340 215 249 481 465 -208 227 -331 hvcurveto
            endchar
          </CharString>
          <CharString index="377">
            238 rmoveto
            151 -238 173 238 352 117 -352 152 142 hlineto
            310 222 120 326 290 -202 134 -330 hvcurveto
            -315 -738 -151 -132 151 -152 -151 hlineto
            324 284 rmoveto
            600 164 vlineto
            186 138 -75 -213 -246 -139 -66 -191 hvcurveto
            endchar
          </CharString>
          <CharString index="378">
            504 1399 rmoveto
            -181 -118 -47 -87 -120 hvcurveto
            82 -113 rlineto
            73 110 109 29 104 hhcurveto
            247 156 -144 -421 -410 -184 -153 -234 -154 -93 55 60 -73 hvcurveto
            -90 -114 rlineto
            -82 84 132 -68 196 hhcurveto
            336 260 250 462 464 -219 246 -350 hvcurveto
            return
          </CharString>
          <CharString index="379">
            hhcurveto
            368 62 -304 -382 -342 0 -271 -125 -79 -62 47 216 hvcurveto
            591 vlineto
            60 -112 -77 15 -93 hhcurveto
            -247 -145 -168 -348 -265 84 -193 218 160 76 102 92 37 hvcurveto
            8 hlineto
            -98 -2 70 -186 167 hhcurveto
            241 53 246 504 409 -87 421 -517 hvcurveto
            return
          </CharString>
          <CharString index="380">
            1053 rmoveto
            -168 -768 hlineto
            -84 -60 -90 -76 -127 hhcurveto
            -160 -17 127 211 hvcurveto
            590 -168 -1477 vlineto
            168 21 rlineto
            306 vlineto
            42 -8 61 -10 71 vhcurveto
            -74 51 49 -26 107 hhcurveto
            105 114 66 103 63 hvcurveto
            6 -51 21 -83 21 -35 159 23 rcurveline
            -26 80 -30 117 138 vvcurveto
            endchar
          </CharString>
          <CharString index="381">
            -330 180 -215 319 114 139 42 82 98 hvcurveto
            -78 108 rlineto
            -63 -92 -82 -29 -104 hhcurveto
            -172 -132 106 250 -16 hvcurveto
            483 133 -481 hlineto
            223 27 129 111 162 hhcurveto
            100 82 -26 -63 94 hvcurveto
            80 108 rlineto
            80 -102 -119 36 -133 hhcurveto
            endchar
          </CharString>
          <CharString index="382">
            525 -23 rmoveto
            300 194 200 340 341 -180 217 -303 -138 -97 -30 -81 -118 hvcurveto
            82 -107 rlineto
            52 84 71 26 119 hhcurveto
            192 106 -128 -285 -281 -126 -119 -192 -111 -61 27 50 -87 hvcurveto
            -77 -108 rlineto
            -76 100 103 -38 139 hhcurveto
            return
          </CharString>
          <CharString index="383">
            vvcurveto
            -660 -11 rmoveto
            146 91 85 156 157 90 -88 -138 -126 -64 -64 -128 -72 vhcurveto
            -187 60 -115 38 159 vvcurveto
            539 -671 rmoveto
            -145 -105 -109 -192 -190 -97 96 156 174 101 86 114 52 vhcurveto
            217 -75 152 -50 -185 vvcurveto
            endchar
          </CharString>
          <CharString index="384">
            hmoveto
            178 386 hlineto
            329 28 154 187 258 vvcurveto
            518 -176 -508 vlineto
            -198 -82 -117 -227 -21 vhcurveto
            844 -174 -846 vlineto
            -233 22 -78 118 198 vvcurveto
            508 -176 -518 vlineto
            -256 149 -193 336 -26 vhcurveto
            endchar
          </CharString>
          <CharString index="385">
            rmoveto
            -176 -1377 306 hlineto
            313 180 144 299 272 -162 150 -335 hvcurveto
            -126 hlineto
            900 512 rmoveto
            -176 -1377 176 hlineto
            -755 733 rmoveto
            194 100 -98 -194 -220 -104 -82 -188 hvcurveto
            -147 594 hlineto
            endchar
          </CharString>
          <CharString index="386">
            rlineto
            -17 -168 68 -76 158 -27 -163 -23 -64 -66 18 -178 132 callgsubr
            208 66 246 -27 hvcurveto
            -40 380 rlineto
            136 -15 71 76 246 hhcurveto
            134 vlineto
            -246 -71 74 136 15 hvcurveto
            40 382 rlineto
            246 27 -208 66 -225 hhcurveto
            endchar
          </CharString>
          <CharString index="387">
            505 rmoveto
            -398 hlineto
            138 234 rlineto
            260 145 -174 hlineto
            150 254 -93 50 -180 -304 rlineto
            -481 -145 395 hlineto
            -140 -234 rlineto
            -255 -146 169 hlineto
            -149 -249 95 -53 179 302 rlineto
            484 hlineto
            endchar
          </CharString>
          <CharString index="388">
            1498 rmoveto
            -164 -160 -113 -198 -203 160 -113 164 168 157 113 201 200 -157 113 -168 hvcurveto
            -119 vmoveto
            93 85 -62 -132 -132 -85 -62 -93 -90 -88 62 134 132 88 60 90 hvcurveto
            endchar
          </CharString>
          <CharString index="389">
            1377 rmoveto
            -172 -1377 172 257 197 hlineto
            309 218 132 321 297 -195 137 -331 hvcurveto
            -198 hlineto
            219 -137 rmoveto
            192 131 -86 -215 -241 -133 -69 -189 hvcurveto
            -220 611 hlineto
            endchar
          </CharString>
          <CharString index="390">
            -213 58 -67 33 94 vvcurveto
            81 62 57 166 136 91 -40 -54 79 vhcurveto
            74 114 rlineto
            65 -88 -125 51 -169 hhcurveto
            -238 -162 -110 -177 -183 140 -66 219 -54 hvcurveto
            223 -56 32 -51 -95 vvcurveto
            -102 -100 -65 -162 vhcurveto
            endchar
          </CharString>
          <CharString index="391">
            453 467 rmoveto
            653 hlineto
            1 23 2 33 36 vvcurveto
            320 -146 196 -254 -241 -158 -202 -276 -23 vhcurveto
            -19 hlineto
            -68 -35 38 66 50 18 42 24 50 hvcurveto
            -108 52 rlineto
            -39 -59 -39 -62 -82 vvcurveto
            -129 87 -91 178 -2 vhcurveto
            return
          </CharString>
          <CharString index="392">
            1377 rmoveto
            -178 hlineto
            -333 -633 -8 0 -333 633 -190 0 385 -686 rlineto
            -233 -118 280 -171 -280 -117 280 -285 177 285 284 117 -284 171 284 118 -239 hlineto
            endchar
          </CharString>
          <CharString index="393">
            954 rmoveto
            138 -97 72 -136 -46 -55 -12 -19 -39 vhcurveto
            127 329 5 callgsubr
            21 42 54 13 36 hhcurveto
            80 46 -33 -72 -73 -48 -42 -95 -74 -67 25 49 -54 hvcurveto
            -89 -79 rlineto
            -81 79 102 -29 107 hhcurveto
            166 123 77 153 hvcurveto
            return
          </CharString>
          <CharString index="394">
            166 91 97 172 295 vvcurveto
            449 -198 252 -309 -310 -198 -252 -449 -295 93 -176 168 -87 vhcurveto
            -239 -140 419 129 hlineto
            -166 82 -93 169 318 vvcurveto
            400 113 156 213 vhcurveto
            return
          </CharString>
          <CharString index="395">
            rmoveto
            -160 -1053 232 hlineto
            269 178 109 256 244 -169 102 -279 hvcurveto
            -71 hlineto
            792 342 rmoveto
            -162 -1053 162 hlineto
            -713 586 rmoveto
            182 84 -61 -160 -184 -100 -50 -168 hvcurveto
            -77 455 hlineto
            endchar
          </CharString>
          <CharString index="396">
            240 -298 hvcurveto
            -104 vmoveto
            236 186 -198 -236 -240 -186 -196 -236 -240 -182 196 240 236 182 198 240 hvcurveto
            -164 -192 rmoveto
            298 callsubr
            320 hmoveto
            298 callsubr
            130 return
          </CharString>
          <CharString index="397">
            -354 -1377 174 591 186 hlineto
            376 -591 208 0 -408 611 rlineto
            189 46 147 127 207 vvcurveto
            -186 hmoveto
            -191 -114 -73 -198 vhcurveto
            -200 512 200 hlineto
            212 100 -72 -176 hvcurveto
            return
          </CharString>
          <CharString index="398">
            rmoveto
            56 111 rlineto
            22 -42 -43 14 -58 hhcurveto
            -125 -70 -65 -152 -40 hvcurveto
            -251 -981 -315 1176 -187 0 409 -1377 190 0 308 1157 rlineto
            76 22 26 34 52 hhcurveto
            26 19 -6 -9 23 hvcurveto
            endchar
          </CharString>
          <CharString index="399">
            1773 rmoveto
            -233 -284 71 -66 266 248 rlineto
            -477 -200 rmoveto
            -63 -47 -48 -61 -61 47 -48 63 61 48 48 61 61 -48 48 -61 hvcurveto
            410 hmoveto
            -61 -48 -48 -61 -61 48 -48 61 63 48 48 61 61 -48 48 -63 hvcurveto
            return
          </CharString>
          <CharString index="400">
            1149 rmoveto
            -75 -60 -59 -73 -76 60 -57 75 75 60 57 76 73 -60 59 -75 hvcurveto
            369 -454 rmoveto
            -738 -143 738 hlineto
            -369 -187 rmoveto
            -75 -60 -59 -73 -76 60 -60 75 75 60 60 76 73 -60 59 -75 hvcurveto
            endchar
          </CharString>
          <CharString index="401">
            rmoveto
            -417 -142 -218 -286 -253 vhcurveto
            88 -92 rlineto
            325 265 191 259 456 vvcurveto
            456 -191 259 -325 265 vhcurveto
            -88 -92 rlineto
            288 -256 140 -213 -419 vvcurveto
            endchar
          </CharString>
          <CharString index="402">
            204 hlineto
            302 921 rlineto
            64 21 22 26 45 hhcurveto
            22 20 -4 -9 22 hvcurveto
            54 112 rlineto
            23 -46 -45 14 -46 hhcurveto
            -127 -51 -62 -150 -46 hvcurveto
            -249 -780 -286 898 rlineto
            -183 hlineto
            endchar
          </CharString>
          <CharString index="403">
            -37 -30 -28 -40 -74 -47 97 -111 hhcurveto
            -97 -71 -75 -94 -45 hvcurveto
            107 -54 rlineto
            61 32 28 32 46 72 55 -97 105 hhcurveto
            -202 -339 rmoveto
            100 hlineto
            39 70 rlineto
            49 88 9 -19 callgsubr
            43 -26 vhcurveto
            return
          </CharString>
          <CharString index="404">
            -604 -145 -134 145 -639 -2 callgsubr
            -449 78 rmoveto
            -316 462 162 hlineto
            189 229 -60 -480 -456 -218 -100 -198 hvcurveto
            -164 500 316 hlineto
            endchar
          </CharString>
          <CharString index="405">
            -56 -40 -40 -50 -54 40 -40 56 56 40 40 54 50 -40 40 -56 hvcurveto
            return
          </CharString>
          <CharString index="406">
            -61 -47 -48 -61 -61 47 -48 61 63 48 48 61 61 -48 48 -63 hvcurveto
            return
          </CharString>
          <CharString index="407">
            -90 70 -73 91 93 70 73 90 90 -70 70 -93 -91 -70 -70 -90 vhcurveto
            return
          </CharString>
          <CharString index="408">
            -92 70 -72 91 93 70 72 92 86 -70 74 -93 -91 -70 -74 -86 vhcurveto
            return
          </CharString>
          <CharString index="409">
            rmoveto
            -169 -70 hlineto
            -280 -360 30 -320 vvcurveto
            -158 149 return
          </CharString>
          <CharString index="410">
            rmoveto
            441 -651 210 0 -502 729 309 callsubr
          </CharString>
          <CharString index="411">
            -254 -208 -206 -252 -254 -206 206 254 return
          </CharString>
          <CharString index="412">
            -222 0 -448 -1377 171 0 110 351 rlineto
            return
          </CharString>
          <CharString index="413">
            -194 hvcurveto
            -105 554 vlineto
            17 121 rlineto
            -357 hlineto
            251 return
          </CharString>
          <CharString index="414">
            -166 134 -134 166 164 136 134 166 return
          </CharString>
          <CharString index="415">
            -113 -104 -49 -92 -80 vhcurveto
            102 -77 rlineto
            72 59 65 25 66 hhcurveto
            return
          </CharString>
          <CharString index="416">
            464 648 -188 0 -422 -580 318 callsubr
          </CharString>
          <CharString index="417">
            137 rmoveto
            -234 hlineto
            -5 -137 71 0 100 callsubr
          </CharString>
          <CharString index="418">
            60 37 93 107 57 -52 -101 2 hvcurveto
            -27 -50 -63 -19 -66 hhcurveto
            endchar
          </CharString>
          <CharString index="419">
            21 -41 32 -23 vhcurveto
            -81 -367 131 0 164 345 rlineto
            return
          </CharString>
          <CharString index="420">
            -49 hhcurveto
            -56 -29 28 56 hvcurveto
            92 -149 -95 vlineto
            -123 81 -82 return
          </CharString>
          <CharString index="421">
            -90 -57 -113 -77 -115 hhcurveto
            -122 -55 58 138 hvcurveto
            endchar
          </CharString>
          <CharString index="422">
            hvcurveto
            99 -215 103 0 48 callsubr
            23 callsubr
            return
          </CharString>
          <CharString index="423">
            rmoveto
            -249 -182 -248 182 -80 -84 -1 callgsubr
            return
          </CharString>
          <CharString index="424">
            rmoveto
            -132 vlineto
            147 117 -38 -122 -12 hvcurveto
            -42 -410 return
          </CharString>
          <CharString index="425">
            rlineto
            -162 580 -174 -1377 174 651 hlineto
            endchar
          </CharString>
          <CharString index="426">
            1829 rmoveto
            -212 -322 83 -52 261 288 rlineto
            return
          </CharString>
          <CharString index="427">
            1829 rmoveto
            -212 -322 83 -52 260 288 rlineto
            return
          </CharString>
          <CharString index="428">
            1829 rmoveto
            -211 -322 83 -52 260 288 rlineto
            return
          </CharString>
          <CharString index="429">
            1543 rmoveto
            -209 -339 83 -51 258 303 rlineto
            return
          </CharString>
          <CharString index="430">
            1200 1800 rmoveto
            -1000 -1102 1000 -1102 return
          </CharString>
          <CharString index="431">
            -406 -537 rmoveto
            97 88 callgsubr
            176 hvcurveto
            endchar
          </CharString>
          <CharString index="432">
            -186 128 -132 226 98 112 29 47 72 vhcurveto
            return
          </CharString>
          <CharString index="433">
            -168 -446 -462 -84 callgsubr
            462 hlineto
            endchar
          </CharString>
          <CharString index="434">
            -152 98 -148 -98 -152 98 -148 -98 -152 98 return
          </CharString>
          <CharString index="435">
            912 545 vlineto
            20 141 rlineto
            -733 -1053 hlineto
            endchar
          </CharString>
          <CharString index="436">
            903 1671 rmoveto
            -225 -208 -66 -246 27 hvcurveto
            return
          </CharString>
          <CharString index="437">
            857 rmoveto
            129 hlineto
            229 520 rlineto
            -188 hlineto
            endchar
          </CharString>
          <CharString index="438">
            831 1053 rmoveto
            -913 -462 913 -168 -1053 return
          </CharString>
          <CharString index="439">
            782 hlineto
            20 155 rlineto
            -628 1222 -174 hlineto
            return
          </CharString>
          <CharString index="440">
            695 rmoveto
            -738 -143 584 -283 154 hlineto
            endchar
          </CharString>
          <CharString index="441">
            517 -174 -532 vlineto
            -246 160 -160 242 return
          </CharString>
          <CharString index="442">
            173 1377 -173 -665 vlineto
            363 callsubr
            return
          </CharString>
          <CharString index="443">
            146 -115 vlineto
            -18 -227 rlineto
            107 67 -14 -72 hvcurveto
            endchar
          </CharString>
          <CharString index="444">
            12 36 hhcurveto
            80 46 -33 -71 -74 -48 -42 -96 -74 -66 25 49 return
          </CharString>
          <CharString index="445">
            -27 hvcurveto
            -116 -26 rlineto
            -122 16 96 -149 182 hhcurveto
            return
          </CharString>
          <CharString index="446">
            -92 -110 -38 70 68 -23 hvcurveto
            57 65 59 25 67 hhcurveto
            endchar
          </CharString>
          <CharString index="447">
            rmoveto
            -124 -106 285 -314 55 -60 16 -19 57 -36 rlinecurve
            return
          </CharString>
          <CharString index="448">
            rmoveto
            -72 -49 -52 -66 -68 49 -52 72 74 -51 callgsubr
            return
          </CharString>
          <CharString index="449">
            vlineto
            -479 536 -22 callgsubr
            479 536 rlineto
            return
          </CharString>
          <CharString index="450">
            1244 rmoveto
            54 93 -369 236 -89 -143 rlineto
            return
          </CharString>
          <CharString index="451">
            1140 540 rmoveto
            -160 hlineto
            16 callsubr
            return
          </CharString>
          <CharString index="452">
            -866 -1377 173 1226 520 hlineto
            endchar
          </CharString>
          <CharString index="453">
            -486 0 163 -792 408 792 407 rlineto
            return
          </CharString>
          <CharString index="454">
            -428 rlineto
            -112 428 -150 -428 -112 hlineto
            return
          </CharString>
          <CharString index="455">
            -363 rmoveto
            111 119 -111 171 -133 hlineto
            return
          </CharString>
          <CharString index="456">
            -180 0 -369 -690 -365 690 -192 0 return
          </CharString>
          <CharString index="457">
            -174 0 -307 -860 -311 860 -178 0 return
          </CharString>
          <CharString index="458">
            -173 -1233 -520 1233 -173 hlineto
            endchar
          </CharString>
          <CharString index="459">
            -137 -34 200 -229 -230 -34 -200 -136 return
          </CharString>
          <CharString index="460">
            -136 -34 200 -230 -228 -35 -200 -137 return
          </CharString>
          <CharString index="461">
            600 1146 rmoveto
            -293 -204 -209 -374 return
          </CharString>
          <CharString index="462">
            396 -168 -416 vlineto
            -195 105 -115 204 return
          </CharString>
          <CharString index="463">
            230 34 212 136 137 35 -200 228 return
          </CharString>
          <CharString index="464">
            229 34 200 137 136 34 -212 230 return
          </CharString>
          <CharString index="465">
            129 115 65 131 80 -54 76 -131 11 hvcurveto
            return
          </CharString>
          <CharString index="466">
            13 rmoveto
            90 -106 76 -177 -163 -117 -71 -99 -83 return
          </CharString>
          <CharString index="467">
            0 -100 -214 rlineto
            -21 -47 -9 -28 -35 vvcurveto
            -61 48 -46 return
          </CharString>
          <CharString index="468">
            -34 26 -21 hvcurveto
            -58 -234 102 0 6 callsubr
            return
          </CharString>
          <CharString index="469">
            -63 -46 -46 -61 -32 9 -33 49 -88 vhcurveto
            39 -70 rlineto
            endchar
          </CharString>
          <CharString index="470">
            -67 -69 -100 -54 -146 hhcurveto
            -172 -98 84 185 hvcurveto
            return
          </CharString>
          <CharString index="471">
            hvcurveto
            -117 -25 rlineto
            -148 16 126 -78 153 hhcurveto
            return
          </CharString>
          <CharString index="472">
            rmoveto
            419 140 213 288 256 vhcurveto
            -88 92 return
          </CharString>
          <CharString index="473">
            rmoveto
            -61 -48 -46 -62 -34 9 -29 20 callsubr
            26 return
          </CharString>
          <CharString index="474">
            hlineto
            60 40 40 60 hvcurveto
            1090 vlineto
            60 -40 40 -60 vhcurveto
            return
          </CharString>
          <CharString index="475">
            hlineto
            -22 -18 18 22 hvcurveto
            148 vlineto
            22 18 18 22 vhcurveto
            return
          </CharString>
          <CharString index="476">
            hlineto
            -60 40 -40 60 vhcurveto
            324 hlineto
            60 40 40 60 hvcurveto
            return
          </CharString>
          <CharString index="477">
            hlineto
            -60 -40 -40 -60 hvcurveto
            -1090 vlineto
            -60 40 -40 60 vhcurveto
            return
          </CharString>
        <CharString name=".notdef">
          180 2100 rmoveto
          -2800 840 2800 vlineto
          -108 -2696 rmoveto
          -622 2592 622 hlineto
          -298 -1650 rmoveto
          90 vlineto
          134 20 56 76 140 vvcurveto
          120 -50 110 -172 -78 -108 -24 -54 -26 18 -20 30 8 8 2 4 10 vhcurveto
          16 34 28 6 42 hhcurveto
          100 22 -60 -78 -106 -38 -40 -144 -8 hvcurveto
          -168 vlineto
          -30 24 -18 26 24 26 18 30 vhcurveto
          -120 -176 rmoveto
          -42 30 -32 40 40 30 32 42 40 -30 30 -40 -40 -30 -30 -40 vhcurveto
          endchar
        </CharString>
        <CharString name="A">
          867 351 -107 callsubr
          -100 callsubr
        </CharString>
        <CharString name="AE">
          659 351 200 callsubr
        </CharString>
        <CharString name="AEacute">
          887 -18 callsubr
          22 callsubr
          -304 -1317 200 callsubr
        </CharString>
        <CharString name="Aacute">
          36 callsubr
          27 -1317 -107 callsubr
          -100 callsubr
        </CharString>
        <CharString name="Abreve">
          595 -25 callsubr
          272 -1166 -107 callsubr
          -100 callsubr
        </CharString>
        <CharString name="Acircumflex">
          53 callsubr
          -60 -1255 -107 callsubr
          -100 callsubr
        </CharString>
        <CharString name="Adieresis">
          -67 callsubr
          62 -1185 -107 callsubr
          -100 callsubr
        </CharString>
        <CharString name="Agrave">
          105 callsubr
          36 -1250 -107 callsubr
          -100 callsubr
        </CharString>
        <CharString name="Alpha">
          867 351 -107 callsubr
          -100 callsubr
        </CharString>
        <CharString name="Alphatonos">
          178 -53 callsubr
          -53 callgsubr
          490 -1026 -107 callsubr
          -100 callsubr
        </CharString>
        <CharString name="Amacron">
          52 callsubr
          537 -1240 -107 callsubr
          -100 callsubr
        </CharString>
        <CharString name="Aogonek">
          867 351 rmoveto
          99 -317 rlineto
          -201 -74 -88 -98 -124 139 callsubr
          40 vhcurveto
          18 134 rlineto
          -10 16 callgsubr
          82 hlineto
          -448 1377 305 callsubr
          -100 callsubr
        </CharString>
        <CharString name="Aring">
          73 callgsubr
          267 -1443 -107 callsubr
          -100 callsubr
        </CharString>
        <CharString name="Atilde">
          717 1556 26 callsubr
          150 -1205 -107 callsubr
          -100 callsubr
        </CharString>
        <CharString name="B">
          1079 196 callsubr
        </CharString>
        <CharString name="Beta">
          1079 196 callsubr
        </CharString>
        <CharString name="C">
          144 callsubr
          -3 callsubr
        </CharString>
        <CharString name="CR">
          endchar
        </CharString>
        <CharString name="Cacute">
          896 -28 callgsubr
          -256 -269 90 callsubr
          -3 callsubr
        </CharString>
        <CharString name="Cacute.loclPLK">
          841 321 callsubr
          -257 -344 90 callsubr
          -3 callsubr
        </CharString>
        <CharString name="Ccaron">
          984 91 callsubr
          -90 callgsubr
          -342 -325 90 callsubr
          -3 callsubr
        </CharString>
        <CharString name="Ccedilla">
          780 137 callgsubr
          51 77 -19 80 hhcurveto
          129 1 callgsubr
          91 vlineto
          187 4 127 67 82 79 -90 114 rcurveline
          211 callsubr
          -319 -270 -246 -464 -414 209 -244 284 -46 hvcurveto
          -13 -180 rlineto
          106 67 -14 -72 hvcurveto
          endchar
        </CharString>
        <CharString name="Ccircumflex">
          789 134 callsubr
          -15 callgsubr
          -342 -207 90 callsubr
          -3 callsubr
        </CharString>
        <CharString name="Cdotaccent">
          729 192 callsubr
          50 52 68 66 -50 52 -74 hvcurveto
          -13 -387 90 callsubr
          -3 callsubr
        </CharString>
        <CharString name="Chi">
          99 215 callsubr
        </CharString>
        <CharString name="D">
          1105 695 -91 callgsubr
          -1377 -2 callgsubr
          85 callgsubr
        </CharString>
        <CharString name="Dcaron">
          820 135 callsubr
          82 callsubr
          211 -1029 -91 callgsubr
          -1377 -2 callgsubr
          85 callgsubr
        </CharString>
        <CharString name="Dcroat">
          1124 695 -91 callgsubr
          297 callsubr
        </CharString>
        <CharString name="E">
          -83 callgsubr
          -93 callsubr
        </CharString>
        <CharString name="Eacute">
          807 -28 callgsubr
          -458 -433 -102 callsubr
          -93 callsubr
        </CharString>
        <CharString name="Ebreve">
          638 37 callgsubr
          -213 -282 -102 callsubr
          -93 callsubr
        </CharString>
        <CharString name="Ecaron">
          895 91 callsubr
          -90 callgsubr
          -544 -489 -102 callsubr
          -93 callsubr
        </CharString>
        <CharString name="Ecircumflex">
          700 134 callsubr
          -15 callgsubr
          -544 -371 -102 callsubr
          -93 callsubr
        </CharString>
        <CharString name="Edieresis">
          435 -106 callgsubr
          -63 -84 callsubr
          -33 callsubr
          -21 callsubr
          -422 -301 -102 callsubr
          -93 callsubr
        </CharString>
        <CharString name="Edotaccent">
          640 192 callsubr
          50 52 68 66 -50 52 -74 hvcurveto
          -215 -551 -102 callsubr
          -93 callsubr
        </CharString>
        <CharString name="Egrave">
          504 126 callsubr
          -448 -366 -102 callsubr
          -93 callsubr
        </CharString>
        <CharString name="Emacron">
          910 -107 callgsubr
          53 -356 -102 callsubr
          -93 callsubr
        </CharString>
        <CharString name="Eng">
          790 hmoveto
          70 -133 hlineto
          -100 callgsubr
          -47 vhcurveto
          -66 -115 108 callsubr
          175 115 100 202 hvcurveto
          1500 -161 -689 vlineto
          61 callgsubr
        </CharString>
        <CharString name="Eogonek">
          -83 callgsubr
          493 hlineto
          -144 -69 -64 -87 -106 30 callsubr
          -83 -28 37 59 71 41 67 206 91 hvcurveto
          115 139 -626 489 510 143 -510 hlineto
          endchar
        </CharString>
        <CharString name="Epsilon">
          -83 callgsubr
          -93 callsubr
        </CharString>
        <CharString name="Epsilontonos">
          13 -53 callsubr
          -53 callgsubr
          213 -142 -102 callsubr
          -93 callsubr
        </CharString>
        <CharString name="Eta">
          860 hmoveto
          84 callsubr
          endchar
        </CharString>
        <CharString name="Etatonos">
          -71 -53 callsubr
          -11 callsubr
          731 -1377 -94 callsubr
          endchar
        </CharString>
        <CharString name="Eth">
          1124 695 -91 callgsubr
          297 callsubr
        </CharString>
        <CharString name="Euro">
          762 251 callsubr
        </CharString>
        <CharString name="Euro.tosf">
          762 251 callsubr
        </CharString>
        <CharString name="F">
          449 1235 rmoveto
          618 hlineto
          21 142 rlineto
          -811 -1377 172 613 540 140 -540 hlineto
          endchar
        </CharString>
        <CharString name="G">
          627 -23 110 callsubr
        </CharString>
        <CharString name="Gamma">
          1089 1377 -24 callgsubr
        </CharString>
        <CharString name="Gbreve">
          655 -25 callsubr
          -28 -1540 110 callsubr
        </CharString>
        <CharString name="Gcircumflex">
          718 -38 callgsubr
          -360 -1629 110 callsubr
        </CharString>
        <CharString name="Gdotaccent">
          658 192 callsubr
          -51 callgsubr
          -31 -1809 110 callsubr
        </CharString>
        <CharString name="H">
          860 hmoveto
          84 callsubr
          endchar
        </CharString>
        <CharString name="Hbar">
          1196 1151 rmoveto
          -161 226 -174 -226 -522 226 -174 -226 -161 -133 161 -1018 174 653 522 -653 174 1018 161 hlineto
          -857 -221 rmoveto
          221 522 -221 vlineto
          endchar
        </CharString>
        <CharString name="Hcircumflex">
          53 callsubr
          -67 -1606 -94 callsubr
          endchar
        </CharString>
        <CharString name="I">
          143 callsubr
          -101 callsubr
        </CharString>
        <CharString name="IJ">
          389 -142 rmoveto
          20 -130 rlineto
          532 48 124 289 311 vvcurveto
          1001 -1042 -144 200 -1090 -200 -143 538 143 -160 1090 489 -846 vlineto
          -298 -95 -192 -406 -39 vhcurveto
          endchar
        </CharString>
        <CharString name="Iacute">
          36 callsubr
          154 -291 -103 callsubr
          -101 callsubr
        </CharString>
        <CharString name="Ibreve">
          595 -25 callsubr
          399 -140 -103 callsubr
          -101 callsubr
        </CharString>
        <CharString name="Icircumflex">
          53 callsubr
          67 -229 -103 callsubr
          -101 callsubr
        </CharString>
        <CharString name="Idieresis">
          -67 callsubr
          189 -159 -103 callsubr
          -101 callsubr
        </CharString>
        <CharString name="Idotaccent">
          598 192 callsubr
          -51 callgsubr
          396 -409 -103 callsubr
          -101 callsubr
        </CharString>
        <CharString name="Igrave">
          105 callsubr
          163 -224 -103 callsubr
          -101 callsubr
        </CharString>
        <CharString name="Imacron">
          52 callsubr
          664 -214 -103 callsubr
          -101 callsubr
        </CharString>
        <CharString name="Iogonek">
          143 callsubr
          290 hlineto
          -144 -69 -64 -87 -106 139 callsubr
          40 vhcurveto
          18 134 rlineto
          -10 16 callgsubr
          306 139 -306 1099 306 hlineto
          endchar
        </CharString>
        <CharString name="Iota">
          143 callsubr
          -101 callsubr
        </CharString>
        <CharString name="Iotadieresis">
          -67 callsubr
          189 -159 -103 callsubr
          -101 callsubr
        </CharString>
        <CharString name="Iotatonos">
          -32 -53 callsubr
          -11 callsubr
          826 hmoveto
          -3 callgsubr
          -101 callsubr
        </CharString>
        <CharString name="Itilde">
          717 1556 26 callsubr
          277 -179 -103 callsubr
          -101 callsubr
        </CharString>
        <CharString name="J">
          993 1377 154 callsubr
        </CharString>
        <CharString name="Jcircumflex">
          757 134 callsubr
          -15 callgsubr
          -33 -229 154 callsubr
        </CharString>
        <CharString name="K">
          383 185 callsubr
          -41 callgsubr
          endchar
        </CharString>
        <CharString name="Kappa">
          383 185 callsubr
          -41 callgsubr
          endchar
        </CharString>
        <CharString name="L">
          271 hmoveto
          332 callsubr
          endchar
        </CharString>
        <CharString name="LIG">
          endchar
        </CharString>
        <CharString name="Lacute">
          524 -28 callgsubr
          -329 -1668 rmoveto
          332 callsubr
          endchar
        </CharString>
        <CharString name="Lambda">
          711 1377 rmoveto
          -222 hlineto
          -440 -1377 173 0 374 1216 371 -1216 rlineto
          182 hlineto
          endchar
        </CharString>
        <CharString name="Lcaron">
          614 1394 rmoveto
          -48 -361 94 -14 107 357 rlineto
          -496 -1376 rmoveto
          332 callsubr
          endchar
        </CharString>
        <CharString name="Ldot">
          271 hmoveto
          332 callsubr
          672 -502 127 callgsubr
        </CharString>
        <CharString name="Lslash">
          267 hmoveto
          783 hlineto
          20 155 rlineto
          -629 489 hlineto
          403 249 -75 112 -328 -204 rlineto
          576 -174 -683 vlineto
          -186 -116 72 -113 114 71 rlineto
          endchar
        </CharString>
        <CharString name="M">
          1061 152 callsubr
        </CharString>
        <CharString name="Mu">
          1061 152 callsubr
        </CharString>
        <CharString name="N">
          790 hmoveto
          77 callsubr
        </CharString>
        <CharString name="Nacute">
          762 -18 callsubr
          22 callsubr
          -48 -1668 rmoveto
          77 callsubr
        </CharString>
        <CharString name="Nacute.loclPLK">
          707 321 callsubr
          -49 -1743 rmoveto
          77 callsubr
        </CharString>
        <CharString name="Ncaron">
          850 91 callsubr
          -90 callgsubr
          -134 -1724 rmoveto
          77 callsubr
        </CharString>
        <CharString name="Ntilde">
          714 1556 59 callsubr
          76 -1556 rmoveto
          77 callsubr
        </CharString>
        <CharString name="Nu">
          790 hmoveto
          77 callsubr
        </CharString>
        <CharString name="O">
          1107 687 -92 callsubr
        </CharString>
        <CharString name="OE">
          423 1399 rmoveto
          -284 -142 -253 -461 -468 140 -240 286 50 42 10 13 45 hvcurveto
          675 141 -534 hlineto
          82 95 49 155 6 237 rrcurveto
          307 141 -307 hlineto
          -10 229 -46 149 -73 89 rrcurveto
          487 hlineto
          21 141 rlineto
          -651 hlineto
          16 -48 -45 6 -50 hhcurveto
          -142 vmoveto
          172 72 -162 -408 -408 -76 -160 -168 -157 -83 158 408 409 77 163 163 hvcurveto
          endchar
        </CharString>
        <CharString name="Oacute">
          36 callsubr
          267 -981 -92 callsubr
        </CharString>
        <CharString name="Oacute.loclPLK">
          710 319 callsubr
          265 -1056 -92 callsubr
        </CharString>
        <CharString name="Obreve">
          595 -25 callsubr
          512 -830 -92 callsubr
        </CharString>
        <CharString name="Ocircumflex">
          53 callsubr
          180 -919 -92 callsubr
        </CharString>
        <CharString name="Odieresis">
          -67 callsubr
          302 -849 -92 callsubr
        </CharString>
        <CharString name="Ograve">
          105 callsubr
          276 -914 -92 callsubr
        </CharString>
        <CharString name="Ohungarumlaut">
          366 -5 callgsubr
          238 -1223 -92 callsubr
        </CharString>
        <CharString name="Omacron">
          52 callsubr
          777 -904 -92 callsubr
        </CharString>
        <CharString name="Omegatonos">
          -9 130 callsubr
          409 -123 60 callsubr
          endchar
        </CharString>
        <CharString name="Omicron">
          1107 687 -92 callsubr
        </CharString>
        <CharString name="Omicrontonos">
          -8 130 callsubr
          915 -690 -92 callsubr
        </CharString>
        <CharString name="Oslash">
          600 1399 rmoveto
          -335 -172 -296 -418 250 callsubr
        </CharString>
        <CharString name="Oslashacute">
          36 callsubr
          -240 -269 rmoveto
          -335 -172 -296 -418 250 callsubr
        </CharString>
        <CharString name="Otilde">
          717 1556 26 callsubr
          390 -869 -92 callsubr
        </CharString>
        <CharString name="P">
          1114 954 155 callsubr
        </CharString>
        <CharString name="Phi">
          685 1377 rmoveto
          -170 -158 hlineto
          -337 -16 -157 -181 -329 vvcurveto
          -342 177 -179 317 -10 vhcurveto
          -162 170 162 vlineto
          318 10 176 179 342 vvcurveto
          331 -158 179 -336 16 vhcurveto
          -168 -129 rmoveto
          -799 vlineto
          -224 12 -96 115 275 vvcurveto
          296 104 97 216 4 vhcurveto
          166 hmoveto
          214 -2 106 -97 -298 vvcurveto
          -273 -96 -117 -224 -12 vhcurveto
          endchar
        </CharString>
        <CharString name="Pi">
          860 hmoveto
          173 1377 345 callsubr
        </CharString>
        <CharString name="Psi">
          512 277 callsubr
        </CharString>
        <CharString name="Q">
          1107 260 callsubr
        </CharString>
        <CharString name="R">
          1075 991 rmoveto
          150 callsubr
          290 callsubr
          endchar
        </CharString>
        <CharString name="Racute">
          36 callsubr
          235 -677 rmoveto
          150 callsubr
          290 callsubr
          endchar
        </CharString>
        <CharString name="Rcaron">
          853 135 callsubr
          82 callsubr
          148 -733 rmoveto
          150 callsubr
          290 callsubr
          endchar
        </CharString>
        <CharString name="Rho">
          1114 954 155 callsubr
        </CharString>
        <CharString name="S">
          1073 381 rmoveto
          -4 callsubr
          122 callgsubr
          endchar
        </CharString>
        <CharString name="Sacute">
          775 -18 callsubr
          22 callsubr
          222 -1287 rmoveto
          -4 callsubr
          122 callgsubr
          endchar
        </CharString>
        <CharString name="Sacute.loclPLK">
          721 320 callsubr
          221 -1362 rmoveto
          -4 callsubr
          122 callgsubr
          endchar
        </CharString>
        <CharString name="Scaron">
          864 91 callsubr
          -251 161 -76 -85 82 callsubr
          136 -1343 rmoveto
          -4 callsubr
          122 callgsubr
          endchar
        </CharString>
        <CharString name="Scedilla">
          674 165 callsubr
          93 vlineto
          281 21 159 160 221 vvcurveto
          -4 callsubr
          105 -101 146 -63 176 -10 -14 -174 rcurveline
          107 67 -14 -72 hvcurveto
          endchar
        </CharString>
        <CharString name="Scircumflex">
          668 134 callsubr
          76 -85 251 160 253 -160 73 85 rlineto
          136 -1225 rmoveto
          -4 callsubr
          122 callgsubr
          endchar
        </CharString>
        <CharString name="Sigma">
          808 631 rmoveto
          123 vlineto
          -461 477 rlineto
          707 146 -908 -148 hlineto
          509 -540 -509 -543 rlineto
          -146 908 145 -705 vlineto
          endchar
        </CharString>
        <CharString name="T">
          683 1228 rmoveto
          -30 callgsubr
          173 hlineto
          endchar
        </CharString>
        <CharString name="Tau">
          683 1228 rmoveto
          -30 callgsubr
          173 hlineto
          endchar
        </CharString>
        <CharString name="Tbar">
          249 700 rmoveto
          261 -700 173 700 264 135 -264 393 418 hlineto
          18 149 rlineto
          -1039 -149 430 -393 -261 hlineto
          endchar
        </CharString>
        <CharString name="Tcaron">
          851 135 callsubr
          82 callsubr
          -242 -496 rmoveto
          -30 callgsubr
          173 hlineto
          endchar
        </CharString>
        <CharString name="Theta">
          4 callsubr
          31 callgsubr
        </CharString>
        <CharString name="Thorn">
          387 282 callsubr
        </CharString>
        <CharString name="U">
          1055 1377 -50 callsubr
          -40 callsubr
        </CharString>
        <CharString name="Uacute">
          36 callsubr
          215 -291 -50 callsubr
          -40 callsubr
        </CharString>
        <CharString name="Ubreve">
          595 -25 callsubr
          460 -140 -50 callsubr
          -40 callsubr
        </CharString>
        <CharString name="Ucircumflex">
          53 callsubr
          128 -229 -50 callsubr
          -40 callsubr
        </CharString>
        <CharString name="Udieresis">
          -67 callsubr
          250 -159 -50 callsubr
          -40 callsubr
        </CharString>
        <CharString name="Ugrave">
          105 callsubr
          224 -224 -50 callsubr
          -40 callsubr
        </CharString>
        <CharString name="Uhungarumlaut">
          366 -5 callgsubr
          186 -533 -50 callsubr
          -40 callsubr
        </CharString>
        <CharString name="Umacron">
          52 callsubr
          725 -214 -50 callsubr
          -40 callsubr
        </CharString>
        <CharString name="Uogonek">
          1055 1377 -50 callsubr
          -253 140 -181 238 -31 vhcurveto
          -118 -65 -53 -81 -97 139 callsubr
          39 vhcurveto
          18 134 rlineto
          -10 -50 -32 -4 -42 hhcurveto
          -83 -28 37 59 70 40 66 198 89 hvcurveto
          195 54 118 169 227 vvcurveto
          endchar
        </CharString>
        <CharString name="Upsilon">
          688 531 -76 callsubr
        </CharString>
        <CharString name="Upsilondieresis">
          400 67 callsubr
          -124 -1005 -76 callsubr
        </CharString>
        <CharString name="Upsilontonos">
          -171 -53 callsubr
          -11 callsubr
          659 -846 -76 callsubr
        </CharString>
        <CharString name="Uring">
          73 callgsubr
          455 -417 -50 callsubr
          -40 callsubr
        </CharString>
        <CharString name="Ustraitcy">
          688 531 -76 callsubr
        </CharString>
        <CharString name="Ustraitstrokecy">
          945 637 rmoveto
          -199 hlineto
          407 740 349 callsubr
          406 -740 rlineto
          -198 -134 257 -503 176 503 257 hlineto
          endchar
        </CharString>
        <CharString name="Utilde">
          717 1556 26 callsubr
          338 -179 -50 callsubr
          -40 callsubr
        </CharString>
        <CharString name="V">
          604 197 rmoveto
          -368 1180 -187 0 461 -1377 180 0 461 1377 rlineto
          -175 hlineto
          endchar
        </CharString>
        <CharString name="W">
          1191 1377 61 callsubr
        </CharString>
        <CharString name="Wacute">
          36 callsubr
          351 -291 61 callsubr
        </CharString>
        <CharString name="Wcircumflex">
          53 callsubr
          264 -229 61 callsubr
        </CharString>
        <CharString name="Wdieresis">
          -67 callsubr
          386 -159 61 callsubr
        </CharString>
        <CharString name="Wgrave">
          105 callsubr
          360 -224 61 callsubr
        </CharString>
        <CharString name="X">
          99 215 callsubr
        </CharString>
        <CharString name="Xi">
          1027 1377 rmoveto
          -874 -159 849 hlineto
          -75 -439 rmoveto
          -674 -161 674 hlineto
          120 -455 rmoveto
          -894 -163 894 hlineto
          endchar
        </CharString>
        <CharString name="Y">
          688 531 -76 callsubr
        </CharString>
        <CharString name="Yacute">
          771 -18 callsubr
          22 callsubr
          -159 -1137 -76 callsubr
        </CharString>
        <CharString name="Ycircumflex">
          665 -38 callgsubr
          -246 -1075 -76 callsubr
        </CharString>
        <CharString name="Ydieresis">
          400 67 callsubr
          -124 -1005 -76 callsubr
        </CharString>
        <CharString name="Ygrave">
          469 126 callsubr
          -150 -1070 -76 callsubr
        </CharString>
        <CharString name="Yotgreek">
          993 1377 154 callsubr
        </CharString>
        <CharString name="Z">
          334 150 69 callsubr
        </CharString>
        <CharString name="Zacute">
          801 -18 callsubr
          22 callsubr
          -543 -1518 69 callsubr
        </CharString>
        <CharString name="Zacute.loclPLK">
          747 320 callsubr
          -544 -1593 69 callsubr
        </CharString>
        <CharString name="Zcaron">
          890 135 callsubr
          270 -215 113 0 269 215 rlineto
          -629 -1574 69 callsubr
        </CharString>
        <CharString name="Zdotaccent">
          634 1786 rmoveto
          -71 -49 -52 -66 -68 49 -52 71 75 49 52 68 66 -49 52 -75 hvcurveto
          -300 -1636 69 callsubr
        </CharString>
        <CharString name="Zeta">
          334 150 69 callsubr
        </CharString>
        <CharString name="a">
          955 230 -71 callsubr
          -59 callsubr
        </CharString>
        <CharString name="aacute">
          751 -47 callsubr
          53 -90 418 170 rlineto
          126 -1220 -71 callsubr
          -59 callsubr
        </CharString>
        <CharString name="abreve">
          579 226 callsubr
          338 callsubr
          376 -1030 -71 callsubr
          -59 callsubr
        </CharString>
        <CharString name="acircumflex">
          338 94 callsubr
          248 3 callsubr
          698 -1111 -71 callsubr
          -59 callsubr
        </CharString>
        <CharString name="acute">
          -52 callsubr
          endchar
        </CharString>
        <CharString name="acute.case">
          759 -18 callsubr
          22 callsubr
          endchar
        </CharString>
        <CharString name="acute.case.loclPLK">
          641 319 callsubr
          endchar
        </CharString>
        <CharString name="acute.loclPLK">
          639 -26 callgsubr
          endchar
        </CharString>
        <CharString name="acutecomb">
          0 -52 callsubr
          endchar
        </CharString>
        <CharString name="adieresis">
          377 156 callsubr
          167 -1067 -71 callsubr
          -59 callsubr
        </CharString>
        <CharString name="ae">
          869 1075 194 callsubr
        </CharString>
        <CharString name="aeacute">
          785 -47 callsubr
          55 callsubr
          7 -375 194 callsubr
        </CharString>
        <CharString name="agrave">
          757 343 callsubr
          602 -1200 -71 callsubr
          -59 callsubr
        </CharString>
        <CharString name="alpha">
          510 1075 -81 callsubr
        </CharString>
        <CharString name="alphatonos">
          567 124 callsubr
          -235 -508 -81 callsubr
        </CharString>
        <CharString name="amacron">
          852 1352 rmoveto
          128 -539 -128 vlineto
          642 -1122 -71 callsubr
          -59 callsubr
        </CharString>
        <CharString name="ampersand">
          558 -99 callgsubr
          168 callsubr
          203 callsubr
          endchar
        </CharString>
        <CharString name="ampersand_ampersand.liga">
          458 -99 callgsubr
          241 callsubr
          168 callsubr
          290 vlineto
          -98 -68 -53 -108 -142 175 callsubr
          203 callsubr
          -752 hmoveto
          166 callsubr
          endchar
        </CharString>
        <CharString name="anoteleia">
          426 684 rmoveto
          -99 75 -79 99 101 77 79 99 97 -77 77 -101 -99 -75 -77 -97 vhcurveto
          endchar
        </CharString>
        <CharString name="aogonek">
          955 230 -71 callsubr
          17 -52 30 -37 39 -24 rrcurveto
          -204 -74 -89 -98 -125 139 callsubr
          40 vhcurveto
          18 134 rlineto
          -10 16 callgsubr
          41 118 rlineto
          59 callgsubr
        </CharString>
        <CharString name="approxequal">
          451 255 callsubr
        </CharString>
        <CharString name="approxequal.tosf">
          451 255 callsubr
        </CharString>
        <CharString name="aring">
          584 207 callsubr
          371 -1325 -71 callsubr
          -59 callsubr
        </CharString>
        <CharString name="arrowboth">
          1349 658 rmoveto
          -492 553 -125 -106 234 -258 55 -60 16 -19 57 -36 rlinecurve
          -988 hlineto
          57 36 16 19 55 60 rrcurveto
          239 258 -126 106 -496 -553 496 -555 124 106 -237 260 -39 42 -41 42 -48 31 rlinecurve
          988 hlineto
          -48 -31 -43 -42 -37 -42 rrcurveto
          -231 -260 125 -106 rlineto
          endchar
        </CharString>
        <CharString name="arrowdown">
          683 1263 rmoveto
          -166 -1100 hlineto
          -34 64 -40 38 -46 40 rrcurveto
          -321 294 -101 -113 625 -558 625 558 -101 113 -322 -295 -46 -39 -40 -40 -33 -62 rlinecurve
          endchar
        </CharString>
        <CharString name="arrowleft">
          589 1267 -37 callsubr
          136 callsubr
          856 148 -855 -10 callgsubr
        </CharString>
        <CharString name="arrowright">
          611 1267 340 callsubr
          -855 -148 856 174 callsubr
        </CharString>
        <CharString name="arrowup">
          600 1335 rmoveto
          -625 -558 101 -113 321 295 46 39 40 39 34 62 rlinecurve
          -1099 166 1099 vlineto
          33 -62 40 -39 46 -39 rrcurveto
          322 -295 101 113 rlineto
          endchar
        </CharString>
        <CharString name="arrowupdown">
          600 1731 rmoveto
          -625 -558 101 -114 321 295 46 39 40 39 34 63 rlinecurve
          -1630 vlineto
          -34 62 -40 40 -46 39 rrcurveto
          -321 295 -101 -114 625 -558 625 558 -101 114 -322 -296 -46 -39 -40 -39 -33 -62 rlinecurve
          1630 vlineto
          33 -62 40 -40 46 -39 rrcurveto
          322 -295 101 114 rlineto
          endchar
        </CharString>
        <CharString name="asciicircum">
          675 1679 rmoveto
          -150 hlineto
          -378 -625 180 0 271 474 272 -474 rlineto
          183 hlineto
          endchar
        </CharString>
        <CharString name="asciicircum_equal.liga">
          -41 884 rmoveto
          -384 635 -150 0 -378 -625 180 0 271 474 361 -629 rlineto
          1030 145 hlineto
          -1030 -525 rmoveto
          1030 146 -1030 hlineto
          endchar
        </CharString>
        <CharString name="asciitilde">
          411 801 rmoveto
          119 callsubr
          -80 callgsubr
          -120 62 rlineto
          -12 callgsubr
          endchar
        </CharString>
        <CharString name="asciitilde.tosf">
          411 801 rmoveto
          119 callsubr
          -80 callgsubr
          -120 62 rlineto
          -12 callgsubr
          endchar
        </CharString>
        <CharString name="asciitilde_asciitilde.liga">
          775 771 rmoveto
          -95 -52 -63 -75 -83 -122 -62 200 -200 -201 -57 -200 -122 -122 -62 200 -200 hhcurveto
          119 callsubr
          188 65 200 127 126 71 -200 187 -80 callgsubr
          endchar
        </CharString>
        <CharString name="asciitilde_asciitilde_greater.liga">
          522 595 rmoveto
          352 callsubr
          -136 -38 200 -226 -230 -34 -200 -136 352 callsubr
          hhcurveto
          -74 -75 72 90 -45 hvcurveto
          -143 -70 rlineto
          -97 40 150 -141 147 357 callsubr
          229 33 190 138 135 38 -178 227 357 callsubr
          hhcurveto
          218 12 135 23 148 hvcurveto
          1 -43 -49 -31 -41 -42 -39 -14 callgsubr
          -544 609 -124 -106 285 -314 24 -25 16 -19 15 -15 rlinecurve
          -32 -156 -33 -129 -116 hhcurveto
          endchar
        </CharString>
        <CharString name="asciitilde_at.liga">
          567 1399 rmoveto
          -98 -310 -8 -182 -145 hvcurveto
          -116 -143 -69 -231 -36 -64 rrcurveto
          -12 callgsubr
          119 callsubr
          -80 callgsubr
          35 66 59 205 107 129 rrcurveto
          138 117 268 6 70 272 callsubr
          20 -1188 rmoveto
          99 callgsubr
          48 38 -8 -22 42 hvcurveto
          endchar
        </CharString>
        <CharString name="asciitilde_equal.liga">
          -299 1003 rmoveto
          -226 -128 -161 -117 -60 hvcurveto
          120 -55 rlineto
          96 52 100 96 136 162 180 -223 225 hhcurveto
          231 161 140 114 59 hvcurveto
          -120 58 rlineto
          -96 -52 -136 -74 -137 -161 -170 222 -236 hhcurveto
          988 -498 rmoveto
          -1378 -146 1378 hlineto
          endchar
        </CharString>
        <CharString name="asciitilde_greater.liga">
          -708 757 rmoveto
          -143 -70 rlineto
          -97 40 151 -141 146 229 34 200 137 137 34 -212 229 hhcurveto
          224 6 145 20 165 hvcurveto
          1 -50 -49 -31 -40 -42 -40 -14 callgsubr
          -544 609 -124 -106 285 -314 23 -24 16 -18 14 -15 rlinecurve
          -28 -169 -32 -135 -119 -137 -34 200 -229 -229 -34 -200 -137 hhcurveto
          -73 -76 72 90 -45 hvcurveto
          endchar
        </CharString>
        <CharString name="asciitilde_hyphen.liga">
          -833 481 rmoveto
          95 52 63 75 83 122 62 -200 200 hhcurveto
          165 11 100 2 159 hvcurveto
          867 146 -898 hlineto
          -150 -22 -103 -126 -126 -71 200 -187 hhcurveto
          -176 -89 -139 -114 -59 hvcurveto
          endchar
        </CharString>
        <CharString name="asterisk">
          515 1157 rmoveto
          27 callsubr
        </CharString>
        <CharString name="asterisk.lc">
          515 1077 rmoveto
          27 callsubr
        </CharString>
        <CharString name="asterisk_asterisk.liga">
          -635 1157 218 callsubr
          930 hmoveto
          27 callsubr
        </CharString>
        <CharString name="asterisk_asterisk_asterisk.liga">
          -685 1457 218 callsubr
          -1170 -300 218 callsubr
          1830 hmoveto
          27 callsubr
        </CharString>
        <CharString name="asterisk_greater.liga">
          -587 153 callsubr
          485 -24 237 callsubr
          endchar
        </CharString>
        <CharString name="asterisk_slash.liga">
          75 -8 callsubr
          -552 1351 rmoveto
          27 callsubr
        </CharString>
        <CharString name="at">
          567 1399 rmoveto
          -178 -191 -62 -156 -179 hvcurveto
          96 -112 rlineto
          150 170 154 34 130 272 callsubr
          -108 -640 rmoveto
          48 38 -8 -22 42 hvcurveto
          -518 vlineto
          99 callgsubr
          hvcurveto
          endchar
        </CharString>
        <CharString name="atilde">
          700 1317 rmoveto
          87 -63 callsubr
          184 callsubr
          255 -1087 -71 callsubr
          -59 callsubr
        </CharString>
        <CharString name="b">
          369 916 rmoveto
          582 vlineto
          -168 -21 rlineto
          -1477 147 vlineto
          12 109 rlineto
          -90 71 94 -42 122 hhcurveto
          272 145 231 319 330 -113 218 -282 -121 -102 -58 -101 -77 hvcurveto
          238 -803 rmoveto
          -96 -87 52 84 -55 hvcurveto
          522 vlineto
          85 57 89 84 118 hhcurveto
          162 86 -137 -275 -281 -98 -134 -176 hvcurveto
          endchar
        </CharString>
        <CharString name="backslash">
          105 -68 callgsubr
          endchar
        </CharString>
        <CharString name="bar">
          674 1613 -72 callgsubr
          endchar
        </CharString>
        <CharString name="bar_bar.liga">
          -286 1613 -72 callgsubr
          720 1816 -72 callgsubr
          endchar
        </CharString>
        <CharString name="bar_bar_bar_greater.liga">
          -2463 -4 callgsubr
          920 -7 callgsubr
          880 -7 callgsubr
          230 callsubr
        </CharString>
        <CharString name="bar_bar_equal.liga">
          800 505 rmoveto
          -1826 234 1826 145 -1826 563 -150 -1650 150 562 1826 hlineto
          -2526 1088 rmoveto
          -150 -1650 150 hlineto
          endchar
        </CharString>
        <CharString name="bar_bar_greater.liga">
          -1361 -4 callgsubr
          798 -7 callgsubr
          230 callsubr
        </CharString>
        <CharString name="bar_braceright.liga">
          267 1675 rmoveto
          -553 -130 553 hlineto
          146 64 -34 -122 hvcurveto
          -1 -420 rlineto
          -168 50 -76 137 -25 vhcurveto
          -140 -25 -47 -67 -177 vvcurveto
          -416 vlineto
          -124 -63 -35 -146 vhcurveto
          -553 -131 553 hlineto
          224 140 64 248 hvcurveto
          384 vlineto
          136 35 76 269 vhcurveto
          134 vlineto
          -270 -34 74 136 hvcurveto
          -2 397 rlineto
          247 -1 -137 54 -224 hhcurveto
          -852 hmoveto
          -1950 151 1950 vlineto
          endchar
        </CharString>
        <CharString name="bar_bracketright.liga">
          632 -231 rmoveto
          1862 -915 -145 756 -1574 -756 -143 vlineto
          -301 1862 rmoveto
          -1862 150 1862 vlineto
          endchar
        </CharString>
        <CharString name="bar_equal.liga">
          789 505 rmoveto
          -1315 234 1315 145 -1315 563 -150 -1650 150 562 1315 hlineto
          endchar
        </CharString>
        <CharString name="bar_greater.liga">
          -463 -4 callgsubr
          230 callsubr
        </CharString>
        <CharString name="bar_hyphen.liga">
          -526 1447 rmoveto
          -150 -1650 150 756 1313 146 -1313 hlineto
          endchar
        </CharString>
        <CharString name="beta">
          583 1497 rmoveto
          -250 -151 -156 -261 hvcurveto
          -1505 vlineto
          168 23 rlineto
          484 vlineto
          -70 89 104 -34 107 hhcurveto
          231 213 163 264 302 -219 80 -191 20 hvcurveto
          164 22 137 104 210 vvcurveto
          222 -185 132 -217 vhcurveto
          -233 -419 rmoveto
          194 81 91 155 139 104 -72 -164 -188 -112 -78 -138 vhcurveto
          -105 hlineto
          -20 -129 rlineto
          109 hlineto
          232 128 -112 -216 -189 -130 -100 -159 -122 -91 31 72 -71 hvcurveto
          endchar
        </CharString>
        <CharString name="blackLowerLeftTriangle">
          60 1080 rmoveto
          -1080 1080 vlineto
          endchar
        </CharString>
        <CharString name="blackLowerRightTriangle">
          95 callsubr
          -1080 rlineto
          1080 hlineto
          endchar
        </CharString>
        <CharString name="blackRightArrow">
          60 callgsubr
          endchar
        </CharString>
        <CharString name="blackUpperLeftTriangle">
          95 callsubr
          -1080 hlineto
          endchar
        </CharString>
        <CharString name="blackUpperRightTriangle">
          95 callsubr
          hlineto
          1080 -1080 rlineto
          endchar
        </CharString>
        <CharString name="block">
          -88 callgsubr
          -3000 1200 hlineto
          endchar
        </CharString>
        <CharString name="braceleft">
          329 callsubr
          63 callgsubr
        </CharString>
        <CharString name="braceleft.case">
          903 1651 rmoveto
          -225 -208 -66 -246 27 hvcurveto
          63 callgsubr
        </CharString>
        <CharString name="braceleft_bar.liga">
          -267 1675 rmoveto
          -224 -137 -54 -247 -1 hvcurveto
          -2 -397 rlineto
          -136 -34 -74 -270 vhcurveto
          -134 vlineto
          269 35 -76 -136 hvcurveto
          -384 vlineto
          -248 140 -64 224 vhcurveto
          553 131 -553 hlineto
          -146 -63 35 124 hvcurveto
          416 vlineto
          177 -47 67 -140 25 vhcurveto
          137 25 50 76 168 vvcurveto
          -1 420 rlineto
          122 64 34 146 vhcurveto
          553 130 hlineto
          299 hmoveto
          -151 -1950 151 hlineto
          endchar
        </CharString>
        <CharString name="braceright">
          297 1671 317 callsubr
          279 callsubr
        </CharString>
        <CharString name="braceright.case">
          297 1651 317 callsubr
          279 callsubr
        </CharString>
        <CharString name="bracketleft">
          116 callgsubr
          hlineto
          endchar
        </CharString>
        <CharString name="bracketleft.case">
          368 -251 rmoveto
          501 143 -342 1574 342 145 -501 hlineto
          endchar
        </CharString>
        <CharString name="bracketleft_bar.liga">
          -632 -231 rmoveto
          915 143 -756 1574 756 145 -915 hlineto
          1216 hmoveto
          -150 -1862 150 hlineto
          endchar
        </CharString>
        <CharString name="bracketright">
          832 1631 135 callgsubr
        </CharString>
        <CharString name="bracketright.case">
          832 1611 135 callgsubr
        </CharString>
        <CharString name="bracketright_numbersign.liga">
          797 912 rmoveto
          177 131 -160 hlineto
          47 -15 callsubr
          -294 0 48 -15 callsubr
          rlineto
          -607 588 -501 -145 342 -1575 -342 -142 501 570 512 hlineto
          -89 callsubr
          44 339 291 0 -89 callsubr
          40 callsubr
          -516 443 rmoveto
          -61 -443 rlineto
          -529 443 hlineto
          672 -443 rmoveto
          146 callsubr
          endchar
        </CharString>
        <CharString name="breve">
          595 64 callsubr
          endchar
        </CharString>
        <CharString name="breve.case">
          598 37 callgsubr
          endchar
        </CharString>
        <CharString name="brevecy">
          598 1293 47 callgsubr
          endchar
        </CharString>
        <CharString name="brevecy.case">
          145 callsubr
          endchar
        </CharString>
        <CharString name="brokenbar">
          674 1613 rmoveto
          -150 -710 150 hlineto
          -396 vmoveto
          -150 -710 150 hlineto
          endchar
        </CharString>
        <CharString name="bullet">
          600 441 rmoveto
          169 callsubr
          endchar
        </CharString>
        <CharString name="c">
          88 callsubr
          -1 callsubr
        </CharString>
        <CharString name="cacute">
          855 1577 rmoveto
          -392 -223 52 -91 418 170 rlineto
          -256 -1311 63 callsubr
          -1 callsubr
        </CharString>
        <CharString name="cacute.loclPLK">
          796 1526 rmoveto
          -210 -338 83 -52 258 303 rlineto
          -250 -1317 63 callsubr
          -1 callsubr
        </CharString>
        <CharString name="caron">
          851 1579 316 callsubr
          endchar
        </CharString>
        <CharString name="caron.alt">
          557 1395 rmoveto
          -49 -360 95 -14 107 356 rlineto
          endchar
        </CharString>
        <CharString name="caron.case">
          853 135 callsubr
          82 callsubr
          endchar
        </CharString>
        <CharString name="ccaron">
          939 1562 316 callsubr
          -338 -1356 63 callsubr
          -1 callsubr
        </CharString>
        <CharString name="ccedilla">
          88 callsubr
          -302 150 -205 266 -34 hvcurveto
          -14 -176 rlineto
          107 67 -14 -72 -60 -50 144 callgsubr
          358 callsubr
          93 vlineto
          113 9 120 46 82 70 -82 110 rcurveline
          -54 -78 -90 -38 -106 hhcurveto
          endchar
        </CharString>
        <CharString name="ccircumflex">
          442 1241 rmoveto
          248 181 249 3 callsubr
          315 -1202 63 callsubr
          -1 callsubr
        </CharString>
        <CharString name="cdotaccent">
          686 1530 341 callsubr
          -9 -1408 63 callsubr
          -1 callsubr
        </CharString>
        <CharString name="cedilla">
          681 165 callsubr
          336 callsubr
        </CharString>
        <CharString name="cedilla.case">
          681 165 callsubr
          336 callsubr
        </CharString>
        <CharString name="cent">
          746 268 callsubr
        </CharString>
        <CharString name="cent.tosf">
          746 268 callsubr
        </CharString>
        <CharString name="chi">
          273 1073 rmoveto
          -165 -60 146 -150 86 -112 173 -385 rlinecurve
          -388 -755 165 -27 324 663 316 -668 165 35 -380 761 346 670 -168 27 -278 -595 -123 318 -94 150 -125 128 rlinecurve
          endchar
        </CharString>
        <CharString name="circle">
          -90 callsubr
          -91 callsubr
          -55 callsubr
          -13 callsubr
          -12 callsubr
          16 callsubr
          -16 callsubr
          -31 callsubr
          hvcurveto
          endchar
        </CharString>
        <CharString name="circumflex">
          127 callsubr
          endchar
        </CharString>
        <CharString name="circumflex.case">
          53 callsubr
          endchar
        </CharString>
        <CharString name="club">
          600 1078 rmoveto
          -144 -96 -62 -128 -108 54 -52 54 -44 hvcurveto
          22 -52 -22 6 -60 hhcurveto
          -128 -66 -88 -146 -124 88 -86 120 94 66 40 92 56 hvcurveto
          98 callgsubr
          54 66 -40 96 hhcurveto
          120 88 86 124 146 -66 88 -128 -60 -22 -6 -22 -52 hvcurveto
          54 44 54 52 108 vvcurveto
          128 -96 62 -144 vhcurveto
          endchar
        </CharString>
        <CharString name="colon">
          437 861 rmoveto
          1 callsubr
          -721 vmoveto
          179 callsubr
          endchar
        </CharString>
        <CharString name="colon.uc">
          437 1021 rmoveto
          1 callsubr
          -721 vmoveto
          179 callsubr
          endchar
        </CharString>
        <CharString name="colon_colon.liga">
          237 861 rmoveto
          1 callsubr
          -800 hmoveto
          1 callsubr
          800 -721 rmoveto
          179 callsubr
          -800 hmoveto
          179 callsubr
          endchar
        </CharString>
        <CharString name="colon_colon_colon.liga">
          -1723 861 rmoveto
          1 callsubr
          960 hmoveto
          1 callsubr
          960 hmoveto
          1 callsubr
          -1920 -721 rmoveto
          179 callsubr
          960 hmoveto
          179 callsubr
          960 hmoveto
          179 callsubr
          endchar
        </CharString>
        <CharString name="colon_colon_equal.liga">
          -1177 964 rmoveto
          300 callsubr
          -800 hmoveto
          300 callsubr
          2857 -80 rmoveto
          -1308 -145 1308 hlineto
          -234 vmoveto
          -1308 -146 1308 hlineto
          -2057 -116 rmoveto
          301 callsubr
          -800 hmoveto
          301 callsubr
          endchar
        </CharString>
        <CharString name="colon_equal.liga">
          -768 868 rmoveto
          -89 69 -74 92 93 69 74 89 89 -69 72 -93 -92 -69 -72 -89 vhcurveto
          1757 16 rmoveto
          -1107 -145 1107 hlineto
          -1757 -363 rmoveto
          -91 69 -72 92 93 69 72 91 87 -69 74 -93 -92 -69 -74 -87 vhcurveto
          1757 129 rmoveto
          -1107 -146 1107 hlineto
          endchar
        </CharString>
        <CharString name="colon_greater.liga">
          21 129 callgsubr
          951 486 rlineto
          170 vlineto
          -1784 266 rmoveto
          -89 70 -73 90 94 70 73 89 90 -70 71 -94 -90 -70 -71 -90 vhcurveto
          -721 vmoveto
          -91 70 -72 90 94 70 72 91 87 -70 74 -94 -90 -70 -74 -87 vhcurveto
          endchar
        </CharString>
        <CharString name="colon_less.liga">
          877 1197 rmoveto
          -950 -486 0 -170 950 346 callsubr
          -1314 -56 rmoveto
          90 -70 71 -91 -93 -70 -71 -90 -89 70 -73 93 91 70 73 89 vhcurveto
          -721 vmoveto
          87 -70 74 -91 -93 -70 -74 -87 -91 70 -72 93 91 70 72 91 vhcurveto
          endchar
        </CharString>
        <CharString name="comma">
          600 329 rmoveto
          -91 -69 -72 -88 -54 25 -50 40 -29 hvcurveto
          -96 -395 152 0 162 371 rlineto
          29 63 10 46 48 vvcurveto
          88 -69 72 -93 vhcurveto
          endchar
        </CharString>
        <CharString name="copyright">
          602 1493 rmoveto
          -345 -198 -278 -344 -344 199 -278 344 343 196 278 344 344 -196 278 -343 hvcurveto
          -100 vmoveto
          288 141 -233 -289 -288 -141 -232 -288 -290 -141 232 288 289 141 233 290 hvcurveto
          7 -142 rmoveto
          -174 -151 -130 -248 -246 137 -133 190 111 76 45 48 55 hvcurveto
          -66 97 rlineto
          -43 -47 -53 -27 -72 hhcurveto
          -111 -77 83 176 188 83 76 105 53 52 -18 -42 52 hvcurveto
          71 96 rlineto
          52 -70 -62 26 -102 hhcurveto
          endchar
        </CharString>
        <CharString name="currency">
          177 249 callsubr
        </CharString>
        <CharString name="currency.tosf">
          177 249 callsubr
        </CharString>
        <CharString name="d">
          831 6 callgsubr
          -121 hhcurveto
          -260 -153 -36 callgsubr
          79 18 callgsubr
          324 callsubr
        </CharString>
        <CharString name="dagger">
          681 109 callgsubr
          338 142 -338 hlineto
          endchar
        </CharString>
        <CharString name="dagger.tosf">
          682 109 callgsubr
          339 142 -339 hlineto
          endchar
        </CharString>
        <CharString name="daggerdbl">
          681 80 callgsubr
          338 142 -338 420 338 142 -338 hlineto
          endchar
        </CharString>
        <CharString name="daggerdbl.tosf">
          682 80 callgsubr
          339 142 -339 420 339 142 -339 hlineto
          endchar
        </CharString>
        <CharString name="dcaron">
          773 6 callgsubr
          -120 hhcurveto
          -261 -152 -233 -317 -326 126 -222 274 116 105 50 112 78 18 callgsubr
          133 17 rmoveto
          -48 -360 94 -14 107 356 rlineto
          -692 -536 rmoveto
          97 84 -50 -85 57 hvcurveto
          -526 vlineto
          -86 -56 -84 -80 -118 hhcurveto
          -166 -88 139 273 278 98 137 176 hvcurveto
          endchar
        </CharString>
        <CharString name="dcroat">
          1004 1329 rmoveto
          148 vlineto
          -168 21 rlineto
          -169 -343 -134 343 -244 vlineto
          82 -70 -92 42 -120 hhcurveto
          -261 -152 -36 callgsubr
          78 hvcurveto
          16 -139 rlineto
          148 1195 157 134 hlineto
          -564 -389 rmoveto
          98 88 callgsubr
          175 hvcurveto
          endchar
        </CharString>
        <CharString name="degree">
          455 281 callsubr
        </CharString>
        <CharString name="degree.tosf">
          455 281 callsubr
        </CharString>
        <CharString name="delta">
          636 1498 rmoveto
          -213 -162 -99 -178 -108 50 -76 144 -74 hvcurveto
          -178 -70 -142 -165 -242 vvcurveto
          -279 174 -230 298 296 174 242 268 303 -132 133 -272 112 vhcurveto
          -174 70 -64 30 94 vvcurveto
          88 74 51 116 92 74 -19 -70 90 vhcurveto
          85 100 rlineto
          76 -92 -97 43 -141 hhcurveto
          -55 -590 rmoveto
          239 -100 75 -83 -238 vvcurveto
          -242 -106 -130 -182 -182 -107 140 230 201 73 135 190 87 vhcurveto
          endchar
        </CharString>
        <CharString name="diamond">
          600 1078 rmoveto
          -392 -546 392 -556 392 556 rlineto
          endchar
        </CharString>
        <CharString name="dieresis">
          -51 callsubr
          endchar
        </CharString>
        <CharString name="dieresis.case">
          392 -106 callgsubr
          -63 -84 callsubr
          -33 callsubr
          -21 callsubr
          endchar
        </CharString>
        <CharString name="dieresistonos">
          42 callgsubr
          endchar
        </CharString>
        <CharString name="divide">
          600 293 callsubr
        </CharString>
        <CharString name="divide.tosf">
          600 293 callsubr
        </CharString>
        <CharString name="dkshade">
          -88 callgsubr
          -3000 100 150 100 -150 100 150 100 -150 100 150 100 -150 hlineto
          100 150 100 -150 100 150 100 -150 100 150 100 150 -100 150 100 -96 callgsubr
          -96 callgsubr
          -96 callgsubr
          -96 callgsubr
          hlineto
          -200 25 callsubr
          -88 callsubr
          -88 callsubr
          -88 callsubr
          -88 callsubr
          900 10 callsubr
          -88 callsubr
          51 callsubr
          21 callsubr
          51 callsubr
          900 10 callsubr
          51 callsubr
          21 callsubr
          51 callsubr
          -88 callsubr
          900 10 callsubr
          -88 callsubr
          -88 callsubr
          -88 callsubr
          -88 callsubr
          100 10 callsubr
          21 callsubr
          700 25 callsubr
          51 callsubr
          21 callsubr
          -100 10 callsubr
          21 callsubr
          51 callsubr
          700 25 callsubr
          -700 25 callsubr
          100 10 callsubr
          21 callsubr
          21 callsubr
          500 25 callsubr
          -88 callsubr
          100 10 callsubr
          21 callsubr
          51 callsubr
          -88 callsubr
          -88 callsubr
          900 10 callsubr
          -88 callsubr
          -88 callsubr
          -88 callsubr
          -88 callsubr
          endchar
        </CharString>
        <CharString name="dollar">
          691 248 callsubr
        </CharString>
        <CharString name="dollar.tosf">
          691 248 callsubr
        </CharString>
        <CharString name="dollar_greater.liga">
          -444 1268 -39 callgsubr
          620 -30 rmoveto
          206 callsubr
          -180 vlineto
          199 -104 98 -26 173 6 rrcurveto
          41 callgsubr
          83 callgsubr
        </CharString>
        <CharString name="dotaccent">
          598 242 callsubr
          endchar
        </CharString>
        <CharString name="dotaccent.case">
          597 192 callsubr
          -51 callgsubr
          endchar
        </CharString>
        <CharString name="dotlessi">
          734 1053 -38 callsubr
          -54 callsubr
        </CharString>
        <CharString name="dottedlunatesigmasymbol">
          88 callsubr
          -330 179 -215 315 124 140 49 78 92 hvcurveto
          -82 110 rlineto
          -54 -78 -90 -38 -106 hhcurveto
          21 534 rmoveto
          -73 -50 -52 -67 -69 50 -53 73 75 50 53 69 67 -50 52 -75 hvcurveto
          endchar
        </CharString>
        <CharString name="downBlock">
          1200 500 rmoveto
          -1200 -1500 1200 hlineto
          endchar
        </CharString>
        <CharString name="e">
          333 467 -80 callsubr
          -70 callsubr
        </CharString>
        <CharString name="eacute">
          788 79 callsubr
          -533 -983 -80 callsubr
          -70 callsubr
        </CharString>
        <CharString name="ebreve">
          616 64 callsubr
          -283 -793 -80 callsubr
          -70 callsubr
        </CharString>
        <CharString name="ecaron">
          872 1579 316 callsubr
          -615 -1028 -80 callsubr
          -70 callsubr
        </CharString>
        <CharString name="ecircumflex">
          375 94 callsubr
          249 3 callsubr
          38 -874 -80 callsubr
          -70 callsubr
        </CharString>
        <CharString name="edieresis">
          414 66 callsubr
          -493 -830 -80 callsubr
          -70 callsubr
        </CharString>
        <CharString name="edotaccent">
          619 242 callsubr
          -286 -1079 -80 callsubr
          -70 callsubr
        </CharString>
        <CharString name="egrave">
          794 78 callsubr
          -57 -963 -80 callsubr
          -70 callsubr
        </CharString>
        <CharString name="eight">
          1013 1049 rmoveto
          244 -213 106 -200 -181 -232 -107 -252 -154 74 -91 146 -70 46 callgsubr
          84 86 92 134 276 callsubr
        </CharString>
        <CharString name="eight.dnom">
          883 488 117 callsubr
          137 callsubr
          129 callsubr
          -44 45 callsubr
          -101 callgsubr
          41 callsubr
        </CharString>
        <CharString name="eight.numr">
          883 1224 117 callsubr
          38 90 vvcurveto
          -420 -5 rmoveto
          33 42 29 95 97 42 -31 -33 -44 -38 -19 -72 -22 vhcurveto
          -122 22 -44 21 44 vvcurveto
          304 -293 rmoveto
          -46 -101 callgsubr
          22 vhcurveto
          128 -22 86 -20 -58 vvcurveto
          endchar
        </CharString>
        <CharString name="eight.tosf">
          1013 1049 rmoveto
          240 -213 110 -200 -181 -232 -110 -249 -154 78 -89 142 -72 46 callgsubr
          79 86 93 138 276 callsubr
        </CharString>
        <CharString name="ellipsis">
          64 114 rmoveto
          -76 57 -60 77 78 58 60 76 74 -58 60 -78 -77 -57 -60 -74 vhcurveto
          400 hmoveto
          -76 60 -60 76 76 58 60 76 74 -58 60 -76 -76 -60 -60 -74 vhcurveto
          402 hmoveto
          -76 58 -60 76 79 57 60 76 74 -57 60 -79 -76 -58 -60 -74 vhcurveto
          endchar
        </CharString>
        <CharString name="emacron">
          889 -65 callgsubr
          -18 -885 -80 callsubr
          -70 callsubr
        </CharString>
        <CharString name="emdash">
          553 vmoveto
          1200 146 -1200 hlineto
          endchar
        </CharString>
        <CharString name="emdash.case">
          633 vmoveto
          1200 146 -1200 hlineto
          endchar
        </CharString>
        <CharString name="endash">
          65 553 rmoveto
          1070 146 -1070 hlineto
          endchar
        </CharString>
        <CharString name="endash.case">
          65 633 rmoveto
          1070 146 -1070 hlineto
          endchar
        </CharString>
        <CharString name="eng">
          1001 57 rmoveto
          708 vlineto
          194 -90 116 -206 -124 -138 -60 -108 -86 vhcurveto
          -13 146 rlineto
          -143 -1053 168 767 hlineto
          83 55 107 93 120 hhcurveto
          163 19 -87 -215 hvcurveto
          -595 vlineto
          -230 -66 -51 -138 -64 vhcurveto
          63 -122 rlineto
          207 92 102 88 298 vvcurveto
          endchar
        </CharString>
        <CharString name="eogonek">
          333 467 -80 callsubr
          -312 159 -215 281 -20 vhcurveto
          -132 -55 -67 -84 -101 30 callsubr
          -83 -28 37 59 70 41 67 201 90 hvcurveto
          77 21 72 35 59 47 -79 111 rcurveline
          36 callgsubr
        </CharString>
        <CharString name="epsilon">
          782 482 -42 callsubr
        </CharString>
        <CharString name="epsilontonos">
          647 -27 callgsubr
          -43 -1101 -42 callsubr
        </CharString>
        <CharString name="equal">
          989 884 rmoveto
          -37 callgsubr
        </CharString>
        <CharString name="equal.dnom">
          833 515 177 callsubr
        </CharString>
        <CharString name="equal.numr">
          833 1251 177 callsubr
        </CharString>
        <CharString name="equal.tosf">
          989 884 rmoveto
          -37 callgsubr
        </CharString>
        <CharString name="equal_colon_equal.liga">
          -763 868 rmoveto
          -89 69 -74 92 93 70 74 89 89 -70 72 -93 -92 -69 -72 -89 vhcurveto
          -328 16 rmoveto
          -1108 -145 1108 hlineto
          2086 145 rmoveto
          -1108 -145 1108 hlineto
          -1758 -363 rmoveto
          -91 69 -72 92 93 70 72 91 87 -70 74 -93 -92 -69 -74 -87 vhcurveto
          -328 129 rmoveto
          -1108 -146 1108 hlineto
          2086 146 rmoveto
          -1108 -146 1108 hlineto
          endchar
        </CharString>
        <CharString name="equal_equal.liga">
          989 884 rmoveto
          -1978 -145 1978 hlineto
          -234 vmoveto
          -1978 -146 1978 hlineto
          endchar
        </CharString>
        <CharString name="equal_equal_equal.liga">
          989 1076 rmoveto
          -3178 -145 3178 hlineto
          -235 vmoveto
          -3178 -145 3178 hlineto
          -234 vmoveto
          -3178 -146 3178 hlineto
          endchar
        </CharString>
        <CharString name="equal_equal_greater.liga">
          511 128 callgsubr
          -2782 -145 2885 hlineto
          107 -117 -107 -117 rlineto
          -2885 -146 2782 -43 callgsubr
          endchar
        </CharString>
        <CharString name="equal_exclam_equal.liga">
          -511 93 callsubr
          -371 430 rmoveto
          -1290 -145 1290 hlineto
          1888 145 rmoveto
          -1290 -145 1290 hlineto
          -1888 -234 rmoveto
          -1290 -146 1290 hlineto
          1888 146 rmoveto
          -1290 -146 1290 hlineto
          -1591 -114 rmoveto
          178 callsubr
          endchar
        </CharString>
        <CharString name="equal_greater.liga">
          511 128 callgsubr
          -1582 -145 1685 hlineto
          107 -117 -107 -117 rlineto
          -1685 -146 1582 -43 callgsubr
          endchar
        </CharString>
        <CharString name="equal_greater_greater.liga">
          411 1231 141 callsubr
          -1049 609 rmoveto
          -125 -106 126 -136 31 -35 32 -35 60 -35 rlinecurve
          -2177 -145 2280 hlineto
          107 -117 -107 -117 rlineto
          -2280 -146 2177 hlineto
          -60 -34 -32 -33 -31 -35 rrcurveto
          -126 -138 125 -106 544 609 rlineto
          endchar
        </CharString>
        <CharString name="equal_less_less.liga">
          -1989 884 rmoveto
          -145 2041 vlineto
          405 448 -124 106 -363 -409 rlineto
          819 347 -37 callsubr
          87 callsubr
          -2902 -620 rmoveto
          -146 1959 vlineto
          363 -408 124 106 -405 448 rlineto
          endchar
        </CharString>
        <CharString name="equal_slash_equal.liga">
          -916 -43 rmoveto
          239 402 rlineto
          1666 146 -1579 hlineto
          139 234 rlineto
          1440 145 -1354 hlineto
          214 361 -129 64 -254 -425 rlineto
          -1655 -145 1568 hlineto
          -140 -234 rlineto
          -1428 -146 1341 hlineto
          -201 -336 rlineto
          endchar
        </CharString>
        <CharString name="equalsinferior">
          833 129 177 callsubr
        </CharString>
        <CharString name="equivalence">
          989 1076 rmoveto
          -778 -145 778 hlineto
          -235 vmoveto
          -37 callgsubr
        </CharString>
        <CharString name="estimated">
          604 1402 rmoveto
          -362 -158 -214 -252 -42 hvcurveto
          -508 vlineto
          -256 48 174 -196 344 hhcurveto
          258 150 116 154 78 hvcurveto
          -98 hlineto
          -122 -68 -134 -72 -184 hhcurveto
          -138 -100 36 58 -70 hvcurveto
          522 864 268 vlineto
          252 -42 -158 214 -362 hhcurveto
          2 -78 rmoveto
          124 108 -36 -50 62 hvcurveto
          -492 -598 494 vlineto
          56 72 104 28 128 hhcurveto
          endchar
        </CharString>
        <CharString name="eta">
          704 1075 -64 callsubr
        </CharString>
        <CharString name="etatonos">
          612 -27 callgsubr
          -86 -508 -64 callsubr
        </CharString>
        <CharString name="eth">
          339 1124 rmoveto
          120 -61 156 162 128 -93 94 -139 38 -169 rlinecurve
          88 -77 -103 50 -136 hhcurveto
          -228 -197 -196 -296 -315 204 -178 252 287 188 213 337 383 -108 257 -238 164 hvcurveto
          124 128 -101 88 -139 -148 -82 44 -100 30 -117 25 rlinecurve
          -37 -132 92 -19 76 -22 66 -32 rlinecurve
          394 -758 rmoveto
          -278 -120 -144 -188 -165 -117 127 239 242 130 106 146 129 111 -56 -106 68 vhcurveto
          4 -42 2 -41 -47 vvcurveto
          endchar
        </CharString>
        <CharString name="exclam">
          689 93 callsubr
          -74 -209 rmoveto
          178 callsubr
          endchar
        </CharString>
        <CharString name="exclam_equal.liga">
          -316 -43 rmoveto
          239 402 rlineto
          1066 146 -979 hlineto
          139 234 rlineto
          840 145 -754 hlineto
          214 361 -129 64 -254 -425 rlineto
          -1055 -145 968 hlineto
          -140 -234 rlineto
          -828 -146 741 hlineto
          -201 -336 rlineto
          endchar
        </CharString>
        <CharString name="exclam_equal_equal.liga">
          -995 -179 rmoveto
          208 350 rlineto
          1776 146 -1689 hlineto
          139 234 rlineto
          1550 145 -1464 hlineto
          139 235 rlineto
          1325 145 -1239 hlineto
          179 301 -130 65 -219 -366 rlineto
          -1769 -145 1683 hlineto
          -140 -235 rlineto
          -1543 -145 1456 hlineto
          -140 -234 rlineto
          -1316 -146 1229 hlineto
          -169 -283 rlineto
          endchar
        </CharString>
        <CharString name="exclam_exclam.liga">
          -271 93 callsubr
          737 923 140 callsubr
          -794 -209 rmoveto
          178 callsubr
          720 hmoveto
          178 callsubr
          endchar
        </CharString>
        <CharString name="exclam_exclam_period.liga">
          -1611 93 callsubr
          1117 923 140 callsubr
          -1174 -209 rmoveto
          178 callsubr
          1100 hmoveto
          178 callsubr
          1102 hmoveto
          178 callsubr
          endchar
        </CharString>
        <CharString name="exclamdown">
          598 997 rmoveto
          -75 -58 -59 -75 -74 58 -60 75 75 60 60 74 75 -60 59 -75 hvcurveto
          72 -476 rmoveto
          -145 hlineto
          -24 -916 rlineto
          195 hlineto
          endchar
        </CharString>
        <CharString name="exclamdown.case">
          600 1399 rmoveto
          -75 -58 -59 -75 -74 58 -59 75 75 60 59 74 75 -60 59 -75 hvcurveto
          72 -483 rmoveto
          -144 hlineto
          -24 -916 rlineto
          194 hlineto
          endchar
        </CharString>
        <CharString name="f">
          823 1498 rmoveto
          -219 -165 -122 -195 hvcurveto
          -210 -251 -132 251 -839 168 839 339 vlineto
          18 132 rlineto
          -357 214 hlineto
          118 74 57 147 81 78 -14 -30 67 vhcurveto
          54 125 rlineto
          36 -83 -89 21 -113 hhcurveto
          endchar
        </CharString>
        <CharString name="female">
          598 1078 rmoveto
          -178 -142 -138 -178 -162 118 -124 156 -22 hvcurveto
          -164 -192 -80 192 -210 96 210 192 80 -192 166 vlineto
          154 22 118 122 162 vvcurveto
          178 -144 138 -178 vhcurveto
          -92 vmoveto
          229 callsubr
        </CharString>
        <CharString name="figuredash">
          71 552 rmoveto
          1058 145 -1058 hlineto
          endchar
        </CharString>
        <CharString name="figuredash.tosf">
          71 552 rmoveto
          1058 145 -1058 hlineto
          endchar
        </CharString>
        <CharString name="filledbox">
          -69 callsubr
          endchar
        </CharString>
        <CharString name="filledrect">
          1140 540 rmoveto
          -1080 -540 1080 hlineto
          endchar
        </CharString>
        <CharString name="five">
          974 1377 rmoveto
          -729 -688 135 hlineto
          30 80 53 16 82 hhcurveto
          138 110 -72 -222 -214 -107 -111 -181 -119 -95 41 86 -83 hvcurveto
          -104 -100 rlineto
          -104 107 126 -62 166 hhcurveto
          284 182 184 275 275 -151 157 -225 -83 -71 -14 -45 -84 hvcurveto
          434 544 vlineto
          endchar
        </CharString>
        <CharString name="five.dnom">
          889 219 115 callsubr
        </CharString>
        <CharString name="five.numr">
          889 954 rmoveto
          138 125 callgsubr
          21 42 54 13 36 hhcurveto
          80 46 -33 -72 -73 -48 -42 -96 -74 -66 25 49 -54 hvcurveto
          -90 -79 rlineto
          -81 80 102 -29 106 hhcurveto
          166 124 77 153 hvcurveto
          endchar
        </CharString>
        <CharString name="five.tosf">
          989 1126 rmoveto
          -731 -667 135 hlineto
          29 67 53 17 84 hhcurveto
          148 114 -72 -212 -203 -112 -111 -177 -127 -88 41 87 -82 hvcurveto
          -103 -102 rlineto
          -104 104 120 -62 175 hhcurveto
          280 186 184 265 265 -156 157 -234 -87 -67 -14 -39 -72 hvcurveto
          407 546 vlineto
          endchar
        </CharString>
        <CharString name="fiveeighths">
          574 286 callsubr
          -523 -586 7 callsubr
          1188 359 callsubr
          44 -43 81 236 callsubr
          -62 46 -114 35 vhcurveto
          80 8 62 137 callsubr
          98 42 -30 -34 -44 -38 -19 -72 -22 vhcurveto
          -123 23 -44 45 callsubr
          -62 -38 -107 -77 callgsubr
          41 callsubr
        </CharString>
        <CharString name="florin">
          738 1498 rmoveto
          -207 -114 -125 -172 hvcurveto
          -148 -168 -132 168 -875 vlineto
          -230 -64 -51 -138 -66 vhcurveto
          60 -120 rlineto
          217 96 91 90 314 vvcurveto
          842 238 vlineto
          21 132 rlineto
          -259 152 hlineto
          104 44 51 116 54 64 -10 -30 66 vhcurveto
          56 123 rlineto
          38 -84 -64 17 -97 hhcurveto
          endchar
        </CharString>
        <CharString name="four">
          879 860 rmoveto
          -140 hlineto
          -22 -391 -395 0 366 871 -140 59 -404 -942 rlineto
          -122 572 vlineto
          1 -335 rlineto
          162 335 178 134 -178 hlineto
          endchar
        </CharString>
        <CharString name="four.dnom">
          795 112 158 callsubr
        </CharString>
        <CharString name="four.numr">
          795 848 158 callsubr
        </CharString>
        <CharString name="four.tosf">
          893 583 rmoveto
          -135 hlineto
          -21 -369 -433 0 366 873 -141 59 -404 -945 rlineto
          -118 610 vlineto
          1 -296 rlineto
          157 296 200 131 -200 hlineto
          endchar
        </CharString>
        <CharString name="fraction">
          -503 368 -36 callsubr
          endchar
        </CharString>
        <CharString name="g">
          1057 1165 109 callsubr
        </CharString>
        <CharString name="gamma">
          943 1077 rmoveto
          -334 -862 rlineto
          -80 376 -136 322 -136 161 -171 -61 rcurveline
          163 -154 176 -447 88 -373 -58 -152 2 -184 65 -128 135 22 rcurveline
          -42 180 9 125 57 132 433 1005 rcurveline
          endchar
        </CharString>
        <CharString name="gbreve">
          582 226 callsubr
          -28 hvcurveto
          -115 -26 rlineto
          -122 16 96 -149 182 hhcurveto
          475 -95 109 callsubr
        </CharString>
        <CharString name="gcircumflex">
          341 94 callsubr
          248 3 callsubr
          797 -176 109 callsubr
        </CharString>
        <CharString name="gdotaccent">
          584 1546 rmoveto
          -71 -50 -51 -66 -68 50 -52 71 75 49 52 68 66 -49 51 -75 hvcurveto
          473 -381 109 callsubr
        </CharString>
        <CharString name="germandbls">
          593 1498 rmoveto
          -250 -151 -148 -283 hvcurveto
          -1067 168 1078 vlineto
          207 83 78 149 145 44 -96 -73 vhcurveto
          -148 -233 -18 -191 -262 397 6 -256 vvcurveto
          -143 -83 -69 -135 -58 -67 20 28 -49 vhcurveto
          -68 -115 rlineto
          -45 70 82 -24 106 hhcurveto
          201 172 125 232 hvcurveto
          337 -402 12 174 124 227 34 196 vvcurveto
          169 -142 118 -206 vhcurveto
          endchar
        </CharString>
        <CharString name="globeWithMeridians">
          600 1494 rmoveto
          -420 -338 -342 -420 -420 338 -342 420 420 338 342 420 420 -338 342 -420 hvcurveto
          38 -80 rmoveto
          8 8 0 -2 10 hvcurveto
          90 -98 74 -110 50 -120 -78 -22 -84 -12 -78 -4 rrcurveto
          -80 368 rmoveto
          -368 vlineto
          -78 4 -82 14 -78 20 50 120 74 110 92 98 rrcurveto
          2 6 8 0 8 hhcurveto
          206 -18 rmoveto
          138 -34 120 -74 90 -102 -46 -32 -58 -26 -60 -22 -44 110 -66 98 -74 82 rrcurveto
          -328 hmoveto
          -76 -82 -64 -98 -46 -110 -60 22 -56 26 -48 32 90 102 122 74 138 34 rrcurveto
          -394 -266 rmoveto
          56 -34 62 -28 68 -24 -28 -86 -18 -92 -4 -98 rrcurveto
          -260 hlineto
          6 134 46 126 72 102 rrcurveto
          1114 hmoveto
          74 -102 46 -126 6 -134 rrcurveto
          -262 hlineto
          -2 98 -18 92 -28 86 66 24 62 28 56 34 rrcurveto
          -858 -108 rmoveto
          84 -24 88 -16 88 -4 rrcurveto
          -210 -306 vlineto
          4 90 16 84 26 80 rrcurveto
          604 hmoveto
          26 -80 16 -84 2 -90 rrcurveto
          -308 210 hlineto
          88 2 90 18 86 24 rrcurveto
          44 -326 rmoveto
          -2 -90 -16 -86 -26 -78 -86 24 -90 16 -88 2 rrcurveto
          212 vlineto
          -80 hmoveto
          -212 vlineto
          -88 -4 -88 -14 -84 -24 -26 78 -16 86 -4 90 rrcurveto
          1030 hmoveto
          -6 -136 -46 -124 -74 -104 -56 34 -62 30 -66 24 28 84 18 94 2 98 rrcurveto
          -842 hmoveto
          4 -98 18 -94 28 -84 -68 -24 -62 -30 -56 -34 -72 104 -46 124 -6 136 rrcurveto
          720 -280 rmoveto
          78 -2 84 -14 78 -22 -50 -120 -74 -108 -90 -100 rrcurveto
          -10 -8 -2 -8 hhcurveto
          -80 368 rmoveto
          -368 vlineto
          -8 -8 2 -6 hhcurveto
          -92 100 -74 108 -50 120 78 22 82 14 78 2 rrcurveto
          390 -60 rmoveto
          60 -20 58 -26 46 -32 -90 -102 -120 -76 -138 -32 74 80 66 98 44 110 rrcurveto
          -698 hmoveto
          46 -110 64 -98 76 -80 -138 32 -122 76 -90 102 48 32 56 26 60 20 rrcurveto
          endchar
        </CharString>
        <CharString name="grave">
          -7 callsubr
          endchar
        </CharString>
        <CharString name="grave.case">
          461 126 callsubr
          endchar
        </CharString>
        <CharString name="gravecomb">
          0 439 188 callsubr
          endchar
        </CharString>
        <CharString name="greater">
          257 1188 rmoveto
          -81 103 callgsubr
          endchar
        </CharString>
        <CharString name="greater.tosf">
          257 1188 rmoveto
          -81 103 callgsubr
          endchar
        </CharString>
        <CharString name="greater_colon.liga">
          -877 129 callgsubr
          950 486 rlineto
          170 vlineto
          364 266 rmoveto
          -89 70 -73 91 93 70 73 89 90 -70 71 -93 -91 -70 -71 -90 vhcurveto
          -721 vmoveto
          179 callsubr
          endchar
        </CharString>
        <CharString name="greater_equal.liga">
          -577 409 rmoveto
          60 -136 1096 487 0 161 -1096 488 -60 -136 985 -432 rlineto
          -948 -896 rmoveto
          59 -136 1097 487 -59 130 rlineto
          endchar
        </CharString>
        <CharString name="greater_equal_greater.liga">
          411 128 callgsubr
          -2218 hlineto
          -308 347 -125 -106 349 -386 2405 0 107 -117 -107 -117 -2405 0 -349 -386 125 -106 308 346 rlineto
          2218 -43 callgsubr
          endchar
        </CharString>
        <CharString name="greater_greater.liga">
          42 1163 172 callsubr
          -1884 452 172 callsubr
          endchar
        </CharString>
        <CharString name="greater_greater_equal.liga">
          789 884 rmoveto
          -1959 hlineto
          -363 409 -124 -106 405 -448 rlineto
          2041 hlineto
          -2778 492 141 callsubr
          2234 -117 rmoveto
          -2041 hlineto
          -405 -448 124 -106 363 408 rlineto
          1959 hlineto
          endchar
        </CharString>
        <CharString name="greater_greater_greater.liga">
          -58 1163 172 callsubr
          -1884 452 172 callsubr
          -1884 452 172 callsubr
          endchar
        </CharString>
        <CharString name="greater_greater_hyphen.liga">
          951 553 rmoveto
          146 -1898 342 callsubr
          -1083 682 141 callsubr
          endchar
        </CharString>
        <CharString name="greater_hyphen.liga">
          951 553 rmoveto
          146 -1302 342 callsubr
          endchar
        </CharString>
        <CharString name="greater_hyphen_greater.liga">
          414 1235 rmoveto
          -109 -92 300 -328 54 -60 16 -19 57 -36 rlinecurve
          -2243 hlineto
          -478 535 -22 callgsubr
          478 535 rlineto
          2244 hlineto
          -49 -31 -40 -42 -39 -42 rrcurveto
          -300 -328 109 -92 543 609 rlineto
          endchar
        </CharString>
        <CharString name="greaterequal">
          281 53 callgsubr
        </CharString>
        <CharString name="greaterequal.tosf">
          281 53 callgsubr
        </CharString>
        <CharString name="guillemotleft">
          617 175 rmoveto
          -270 412 270 413 -101 65 44 callgsubr
        </CharString>
        <CharString name="guillemotleft.case">
          617 265 rmoveto
          -270 412 270 413 -101 65 44 callgsubr
        </CharString>
        <CharString name="guillemotright">
          849 587 29 callgsubr
        </CharString>
        <CharString name="guillemotright.case">
          849 677 29 callgsubr
        </CharString>
        <CharString name="guilsinglleft">
          823 173 97 callgsubr
        </CharString>
        <CharString name="guilsinglleft.case">
          823 263 97 callgsubr
        </CharString>
        <CharString name="guilsinglright">
          644 587 100 callgsubr
        </CharString>
        <CharString name="guilsinglright.case">
          644 677 100 callgsubr
        </CharString>
        <CharString name="h">
          369 1493 rmoveto
          -168 -18 rlineto
          -1475 168 767 vlineto
          83 55 107 93 120 hhcurveto
          70 callgsubr
          endchar
        </CharString>
        <CharString name="hbar">
          707 91 callgsubr
        </CharString>
        <CharString name="hcircumflex">
          658 1922 rmoveto
          -113 hlineto
          -271 -216 75 -85 251 161 253 -161 74 85 rlineto
          -558 -213 rmoveto
          -168 -18 rlineto
          -1475 168 767 vlineto
          83 55 107 93 120 hhcurveto
          70 callgsubr
          endchar
        </CharString>
        <CharString name="heart">
          868 1078 rmoveto
          -138 -70 -74 -130 -60 hvcurveto
          130 -60 -70 74 -138 hhcurveto
          -146 -86 -114 -134 -236 220 -262 280 -332 hvcurveto
          280 332 220 264 234 vvcurveto
          134 -86 114 -146 vhcurveto
          endchar
        </CharString>
        <CharString name="house">
          598 1078 rmoveto
          -518 -462 rlineto
          -616 1040 616 vlineto
          -522 280 rmoveto
          382 -342 rlineto
          -424 -760 424 vlineto
          endchar
        </CharString>
        <CharString name="hungarumlaut">
          275 1324 rmoveto
          110 -51 194 328 -149 70 rlineto
          173 -347 rmoveto
          106 -56 216 326 -146 77 rlineto
          endchar
        </CharString>
        <CharString name="hungarumlaut.case">
          274 1564 rmoveto
          110 -52 234 callsubr
          endchar
        </CharString>
        <CharString name="hyphen">
          199 553 rmoveto
          802 146 -802 hlineto
          endchar
        </CharString>
        <CharString name="hyphen.case">
          199 633 rmoveto
          802 146 -802 hlineto
          endchar
        </CharString>
        <CharString name="hyphen.lc">
          199 473 rmoveto
          802 146 -802 hlineto
          endchar
        </CharString>
        <CharString name="hyphen_asciitilde.liga">
          833 771 rmoveto
          -12 callgsubr
          -165 -11 -100 -2 -159 hvcurveto
          -867 -146 898 hlineto
          150 22 103 126 126 71 -200 187 -80 callgsubr
          endchar
        </CharString>
        <CharString name="hyphen_bar.liga">
          526 1447 rmoveto
          -748 -1313 -146 1313 -756 150 1650 vlineto
          endchar
        </CharString>
        <CharString name="hyphen_greater.liga">
          411 -64 callgsubr
          -1651 -148 1652 174 callsubr
        </CharString>
        <CharString name="hyphen_greater_greater.liga">
          -195 1235 rmoveto
          -126 -106 286 -314 55 -60 16 -19 57 -36 rlinecurve
          -2244 -148 2244 hlineto
          -48 -31 -40 -42 -40 -42 rrcurveto
          -286 -314 126 -106 543 609 rlineto
          63 609 141 callsubr
          endchar
        </CharString>
        <CharString name="hyphen_hyphen.liga">
          87 553 rmoveto
          761 146 -761 hlineto
          -935 -146 rmoveto
          761 146 -761 hlineto
          endchar
        </CharString>
        <CharString name="hyphen_hyphen_greater.liga">
          411 -64 callgsubr
          -2851 -148 2852 174 callsubr
        </CharString>
        <CharString name="hyphen_hyphen_hyphen.liga">
          -2046 553 rmoveto
          861 146 -861 hlineto
          1015 -146 rmoveto
          862 146 -862 hlineto
          1016 -146 rmoveto
          861 146 -861 hlineto
          endchar
        </CharString>
        <CharString name="hyphen_less.liga">
          -951 553 rmoveto
          1302 hlineto
          479 -536 124 106 -458 503 458 503 -124 106 -479 -536 rlineto
          -1302 hlineto
          endchar
        </CharString>
        <CharString name="hyphen_less_less.liga">
          226 1235 rmoveto
          -479 -536 rlineto
          -1898 -146 1898 hlineto
          479 -536 124 106 87 callsubr
          480 106 -37 callsubr
          87 callsubr
          endchar
        </CharString>
        <CharString name="i">
          183 callsubr
          48 52 68 66 -48 -94 callgsubr
          -54 callsubr
        </CharString>
        <CharString name="i.loclTRK">
          183 callsubr
          49 52 68 66 -49 -94 callgsubr
          -54 callsubr
        </CharString>
        <CharString name="iacute">
          770 -47 callsubr
          53 -90 418 170 rlineto
          -114 -397 -38 callsubr
          -54 callsubr
        </CharString>
        <CharString name="ibreve">
          598 226 callsubr
          338 callsubr
          136 -207 -38 callsubr
          -54 callsubr
        </CharString>
        <CharString name="icircumflex">
          357 94 callsubr
          248 3 callsubr
          458 -288 -38 callsubr
          -54 callsubr
        </CharString>
        <CharString name="idieresis">
          396 156 callsubr
          -73 -244 -38 callsubr
          -54 callsubr
        </CharString>
        <CharString name="igrave">
          776 343 callsubr
          362 -377 -38 callsubr
          -54 callsubr
        </CharString>
        <CharString name="ij">
          369 1546 rmoveto
          -72 -50 -51 -66 -68 50 -52 72 71 51 52 68 66 -51 51 -71 hvcurveto
          528 hmoveto
          -72 -50 -51 -66 -68 50 -52 72 72 50 52 68 66 -50 51 -72 hvcurveto
          104 -493 rmoveto
          -894 -129 177 -791 -187 -133 540 133 -191 791 391 -825 hlineto
          -221 -206 -97 -191 -74 vhcurveto
          50 -131 rlineto
          281 91 230 152 290 vvcurveto
          endchar
        </CharString>
        <CharString name="imacron">
          871 1352 rmoveto
          128 -539 -128 vlineto
          402 -299 -38 callsubr
          -54 callsubr
        </CharString>
        <CharString name="infinity">
          905 1025 195 callsubr
        </CharString>
        <CharString name="infinity.case">
          905 1105 195 callsubr
        </CharString>
        <CharString name="infinity.tosf">
          905 1025 195 callsubr
        </CharString>
        <CharString name="integral">
          -21 callgsubr
          -1556 vlineto
          227 callsubr
          1556 238 callsubr
        </CharString>
        <CharString name="integral.tosf">
          -21 callgsubr
          -1556 vlineto
          227 callsubr
          1556 238 callsubr
        </CharString>
        <CharString name="integralbt">
          666 2000 rmoveto
          -162 -2146 hlineto
          227 callsubr
          endchar
        </CharString>
        <CharString name="integraltp">
          -21 callgsubr
          -2410 162 2409 238 callsubr
        </CharString>
        <CharString name="intersection">
          600 1149 rmoveto
          -251 -202 -202 -251 hvcurveto
          -611 146 611 vlineto
          169 138 138 169 169 138 -138 -169 vhcurveto
          -611 146 611 vlineto
          251 -202 202 -251 vhcurveto
          endchar
        </CharString>
        <CharString name="invcircle">
          -69 callsubr
          -540 1000 rmoveto
          252 208 -208 -252 304 callsubr
          252 206 208 254 hvcurveto
          -160 vmoveto
          -166 -134 -136 -164 307 callsubr
          164 -136 136 -164 hvcurveto
          endchar
        </CharString>
        <CharString name="invsmileface">
          600 1078 rmoveto
          -300 -240 -240 -298 -91 callsubr
          -55 callsubr
          240 -298 hvcurveto
          -174 -286 rmoveto
          143 callgsubr
          340 hmoveto
          143 callgsubr
          128 -322 rmoveto
          -146 -18 -118 -120 -158 hhcurveto
          -158 -118 120 146 -18 hvcurveto
          86 hlineto
          -104 26 68 -74 114 hhcurveto
          114 68 74 104 26 hvcurveto
          endchar
        </CharString>
        <CharString name="iogonek">
          183 callsubr
          49 52 68 66 -49 -94 callgsubr
          301 hlineto
          -144 -69 -64 -87 -106 30 callsubr
          -83 -28 37 59 71 41 67 206 91 hvcurveto
          297 133 -297 hlineto
          endchar
        </CharString>
        <CharString name="iota">
          481 911 -98 callsubr
        </CharString>
        <CharString name="iotadieresis">
          362 1297 rmoveto
          60 48 45 61 62 -48 46 -60 -63 -47 -46 -62 -61 47 -45 131 callgsubr
          -293 -386 -98 callsubr
        </CharString>
        <CharString name="iotadieresistonos">
          565 1827 rmoveto
          -58 -352 117 -20 120 336 rlineto
          -378 -320 rmoveto
          -63 -48 -48 -61 -61 48 -48 63 -76 callgsubr
          115 callgsubr
          -289 -560 -98 callsubr
        </CharString>
        <CharString name="iotatonos">
          584 -27 callgsubr
          -281 -672 -98 callsubr
        </CharString>
        <CharString name="itilde">
          719 1317 rmoveto
          87 -63 callsubr
          184 callsubr
          15 -264 -38 callsubr
          -54 callsubr
        </CharString>
        <CharString name="j">
          733 219 callsubr
        </CharString>
        <CharString name="jcircumflex">
          490 94 callsubr
          248 3 callsubr
          481 -288 213 callsubr
        </CharString>
        <CharString name="k">
          43 callgsubr
          endchar
        </CharString>
        <CharString name="kappa">
          913 1076 rmoveto
          -513 -511 396 -430 80 -86 72 -56 115 -16 rlinecurve
          58 138 -82 19 -54 36 -86 89 rlinecurve
          -294 310 450 409 rlineto
          -716 75 rmoveto
          -166 hlineto
          32 -120 19 -114 -138 vvcurveto
          -681 168 649 vlineto
          120 -7 156 -46 128 vhcurveto
          endchar
        </CharString>
        <CharString name="kgreenlandic">
          1072 1053 rmoveto
          -218 hlineto
          -467 -488 518 -565 222 0 -533 576 rlineto
          -225 477 rmoveto
          -168 -1053 168 hlineto
          endchar
        </CharString>
        <CharString name="l">
          611 1477 182 callsubr
        </CharString>
        <CharString name="lacute">
          697 2018 rmoveto
          -393 -223 53 -91 418 170 rlineto
          -164 -397 182 callsubr
        </CharString>
        <CharString name="lambda">
          485 1053 rmoveto
          -388 -1042 162 -36 336 948 rlineto
          90 -454 112 -308 147 -184 173 64 rcurveline
          -162 162 -98 323 -114 471 -77 324 -127 136 -310 46 rrcurveto
          -28 -134 219 -34 77 -94 56 -188 rlinecurve
          endchar
        </CharString>
        <CharString name="lcaron">
          763 1494 rmoveto
          -49 -360 95 -14 107 356 rlineto
          -305 1 182 callsubr
        </CharString>
        <CharString name="ldot">
          114 callgsubr
          510 622 341 callsubr
          endchar
        </CharString>
        <CharString name="less">
          945 164 callsubr
          endchar
        </CharString>
        <CharString name="less.tosf">
          945 164 callsubr
          endchar
        </CharString>
        <CharString name="less_asciitilde.liga">
          -392 17 rmoveto
          124 106 -285 314 -23 24 -16 18 -14 15 rlinecurve
          28 169 32 135 119 137 34 -200 229 229 34 200 137 hhcurveto
          73 76 -72 -90 45 hvcurveto
          143 70 rlineto
          97 -40 -151 141 -146 -229 -34 -200 -137 -137 -34 212 -229 hhcurveto
          -224 -6 -145 -20 -165 hvcurveto
          -1 50 49 31 40 42 40 42 rlinecurve
          13 callgsubr
          rlineto
          endchar
        </CharString>
        <CharString name="less_asciitilde_asciitilde.liga">
          -1722 595 rmoveto
          -116 -33 129 32 -156 hvcurveto
          15 15 16 19 24 25 rrcurveto
          13 callgsubr
          544 -609 124 106 -285 314 rlineto
          -39 42 -41 42 -49 31 1 43 rcurveline
          -23 148 12 -135 218 356 callsubr
          227 38 178 135 138 34 -190 228 356 callsubr
          hhcurveto
          147 150 141 97 40 hvcurveto
          -143 70 rlineto
          -90 -45 -75 -72 -74 353 callsubr
          -136 -34 200 -230 -226 -38 -200 -136 353 callsubr
          hhcurveto
          endchar
        </CharString>
        <CharString name="less_asciitilde_greater.liga">
          -1255 164 callsubr
          1231 129 rmoveto
          -81 103 callgsubr
          -651 58 rmoveto
          -95 -52 -63 -75 -83 -122 -62 200 -200 -201 -57 -200 -122 -122 -62 200 -200 hhcurveto
          119 callsubr
          188 65 200 127 126 71 -200 187 -80 callgsubr
          endchar
        </CharString>
        <CharString name="less_asterisk.liga">
          413 153 callsubr
          -665 -24 233 callsubr
          endchar
        </CharString>
        <CharString name="less_asterisk_greater.liga">
          -687 153 callsubr
          -665 -24 233 callsubr
          1150 179 237 callsubr
          endchar
        </CharString>
        <CharString name="less_bar.liga">
          463 1424 rmoveto
          212 callsubr
        </CharString>
        <CharString name="less_bar_bar.liga">
          161 1424 rmoveto
          -1603 152 1603 vlineto
          -950 hmoveto
          212 callsubr
        </CharString>
        <CharString name="less_bar_bar_bar.liga">
          63 1424 rmoveto
          -1603 152 1603 vlineto
          -1072 hmoveto
          -1603 152 1603 vlineto
          -1032 hmoveto
          212 callsubr
        </CharString>
        <CharString name="less_bar_greater.liga">
          -526 1447 rmoveto
          -150 -1650 150 hlineto
          -379 1484 rmoveto
          -919 -568 0 -172 919 -573 0 179 -775 479 775 477 rlineto
          608 178 rmoveto
          -177 vlineto
          779 -478 -779 -479 0 -182 923 576 rlineto
          172 vlineto
          endchar
        </CharString>
        <CharString name="less_colon.liga">
          -21 1197 rmoveto
          -951 -486 0 -170 951 346 callsubr
          833 -56 rmoveto
          90 -70 71 -90 -94 -70 -71 -90 -89 70 -73 94 90 70 73 89 vhcurveto
          -721 vmoveto
          87 -70 74 -90 -94 -70 -74 -87 -91 70 -72 94 90 70 72 91 vhcurveto
          endchar
        </CharString>
        <CharString name="less_dollar.liga">
          -197 1187 rmoveto
          93 callgsubr
          177 vlineto
          206 callsubr
          -706 437 593 363 rlineto
          583 279 -39 callgsubr
          135 -640 126 callgsubr
        </CharString>
        <CharString name="less_dollar_greater.liga">
          -644 1268 -39 callgsubr
          620 -30 rmoveto
          206 callsubr
          -706 437 593 363 30 198 93 callgsubr
          83 callgsubr
        </CharString>
        <CharString name="less_equal.liga">
          577 34 callgsubr
        </CharString>
        <CharString name="less_equal_equal.liga">
          -1711 1231 -37 callsubr
          12 callgsubr
          2782 146 -2885 hlineto
          -107 117 107 117 rlineto
          2885 145 -2782 hlineto
          60 35 32 35 31 35 125 136 rcurveline
          endchar
        </CharString>
        <CharString name="less_equal_equal_greater.liga">
          511 128 callgsubr
          -3670 69 callgsubr
          3670 -43 callgsubr
          -4300 hmoveto
          107 117 3876 0 107 -117 -107 -117 rlineto
          -3876 hlineto
          endchar
        </CharString>
        <CharString name="less_equal_greater.liga">
          511 128 callgsubr
          -2470 69 callgsubr
          2470 -43 callgsubr
          -3100 hmoveto
          107 117 2676 0 107 -117 -107 -117 rlineto
          -2676 hlineto
          endchar
        </CharString>
        <CharString name="less_equal_less.liga">
          -1611 1231 -37 callsubr
          12 callgsubr
          2218 hlineto
          308 -346 125 106 -349 386 -2405 0 -107 117 107 117 2405 0 349 386 -125 106 -308 -347 rlineto
          -2218 hlineto
          60 35 32 35 31 35 125 136 rcurveline
          endchar
        </CharString>
        <CharString name="less_exclam_hyphen_hyphen.liga">
          -2311 93 callsubr
          -683 781 -37 callsubr
          136 callsubr
          604 148 -603 hlineto
          57 36 16 19 55 60 285 314 rcurveline
          800 -576 rmoveto
          3038 146 -3038 hlineto
          -315 -454 rmoveto
          178 callsubr
          endchar
        </CharString>
        <CharString name="less_greater.liga">
          1285 vmoveto
          -924 -572 0 -172 924 -578 926 578 rlineto
          172 vlineto
          -926 -571 rmoveto
          -780 484 780 480 782 -480 rlineto
          endchar
        </CharString>
        <CharString name="less_hyphen.liga">
          -411 1235 -37 callsubr
          136 callsubr
          1652 148 -1651 -10 callgsubr
        </CharString>
        <CharString name="less_hyphen_greater.liga">
          411 -64 callgsubr
          -2600 hlineto
          57 36 16 19 55 60 rrcurveto
          13 callgsubr
          544 -609 124 106 136 callsubr
          2602 174 callsubr
        </CharString>
        <CharString name="less_hyphen_hyphen.liga">
          -1611 1235 -37 callsubr
          136 callsubr
          2852 148 -2851 -10 callgsubr
        </CharString>
        <CharString name="less_hyphen_less.liga">
          789 1235 rmoveto
          -478 -535 rlineto
          -2243 hlineto
          57 36 16 19 54 60 rrcurveto
          300 328 -109 92 -543 -609 543 -609 109 92 -300 328 -39 42 -40 42 -49 31 rlinecurve
          2244 hlineto
          478 -535 124 106 87 callsubr
          endchar
        </CharString>
        <CharString name="less_less.liga">
          -42 1163 121 callsubr
          933 130 121 callsubr
          endchar
        </CharString>
        <CharString name="less_less_equal.liga">
          -1611 1231 -37 callsubr
          87 callsubr
          381 106 rmoveto
          -544 -609 544 -609 125 106 -126 138 -31 35 -32 33 -60 34 rlinecurve
          2177 146 -2280 hlineto
          -107 117 107 117 rlineto
          2280 145 -2177 hlineto
          60 35 32 35 31 35 126 136 rcurveline
          endchar
        </CharString>
</ttFont>
